<svg width="176" height="82" viewBox="0 0 176 82" fill="none" xmlns="http://www.w3.org/2000/svg">
<path d="M44.4246 56.255V46.762H47.033C49.3575 46.762 51.2738 48.3589 51.2738 51.5351C51.2738 54.6935 49.322 56.255 46.9975 56.255H44.4246ZM47.0507 57.7987C50.2447 57.7987 53.0659 55.6517 53.0659 51.5351C53.0659 47.4008 50.2801 45.2182 47.0862 45.2182H42.6857V57.7987H47.0507Z" fill="black"/>
<path d="M56.8562 57.7987V49.2639H55.206V57.7987H56.8562ZM54.8334 46.0345C54.8334 46.691 55.3657 47.2233 56.0223 47.2233C56.6965 47.2233 57.2288 46.691 57.2288 46.0345C57.2288 45.3602 56.6965 44.8279 56.0223 44.8279C55.3657 44.8279 54.8334 45.3602 54.8334 46.0345Z" fill="black"/>
<path d="M58.8811 55.5807C59.0231 56.5566 60.0167 58.0649 62.3589 58.0649C64.4705 58.0649 65.4819 56.6276 65.4819 55.421C65.4819 54.1612 64.6657 53.2208 63.1219 52.8836L61.7379 52.582C61.0814 52.44 60.762 52.0674 60.762 51.5528C60.762 50.9673 61.3298 50.4172 62.1815 50.4172C63.53 50.4172 63.8849 51.3931 63.9559 51.8367L65.4286 51.2867C65.2512 50.5237 64.5237 48.9977 62.1815 48.9977C60.5136 48.9977 59.1473 50.2398 59.1473 51.6948C59.1473 52.9014 59.9458 53.8063 61.2766 54.0902L62.7316 54.4096C63.4413 54.5693 63.8317 54.9774 63.8317 55.5098C63.8317 56.113 63.3171 56.6454 62.3767 56.6454C61.1701 56.6454 60.4958 55.9356 60.3894 55.0484L58.8811 55.5807Z" fill="black"/>
<path d="M69.9547 46.5668H68.4288V47.9508C68.4288 48.6961 68.0384 49.2639 67.1157 49.2639H66.6544V50.7721H68.2868V55.4565C68.2868 57.0002 69.2095 57.8874 70.6645 57.8874C71.2323 57.8874 71.6582 57.781 71.8001 57.7277V56.3082C71.6582 56.3437 71.3565 56.3792 71.1436 56.3792C70.2741 56.3792 69.9547 55.9888 69.9547 55.2081V50.7721H71.8001V49.2639H69.9547V46.5668Z" fill="black"/>
<path d="M78.5194 49.1752C78.4307 49.1574 78.2 49.1219 77.9693 49.1219C77.0999 49.1219 76.0352 49.4413 75.4142 50.7544V49.2639H73.7818V57.7987H75.4497V53.5224C75.4497 51.6416 76.3901 50.8963 77.7919 50.8963C78.0226 50.8963 78.271 50.9141 78.5194 50.9496V49.1752Z" fill="black"/>
<path d="M81.878 57.7987V49.2639H80.2278V57.7987H81.878ZM79.8552 46.0345C79.8552 46.691 80.3875 47.2233 81.044 47.2233C81.7183 47.2233 82.2506 46.691 82.2506 46.0345C82.2506 45.3602 81.7183 44.8279 81.044 44.8279C80.3875 44.8279 79.8552 45.3602 79.8552 46.0345Z" fill="black"/>
<path d="M86.2273 57.7987V56.5566C86.7597 57.4793 87.7356 58.0294 88.9954 58.0294C91.5328 58.0294 92.9701 56.0243 92.9701 53.4869C92.9701 51.0028 91.6393 49.0155 89.0486 49.0155C87.6291 49.0155 86.6355 49.7075 86.2273 50.4705V44.9521H84.5772V57.7987H86.2273ZM91.2666 53.4869C91.2666 55.3323 90.273 56.5389 88.747 56.5389C87.2742 56.5389 86.2096 55.3323 86.2096 53.4869C86.2096 51.6416 87.2742 50.4882 88.747 50.4882C90.2907 50.4882 91.2666 51.6416 91.2666 53.4869Z" fill="black"/>
<path d="M100.737 56.7696C100.737 57.1245 100.773 57.6035 100.808 57.7987H102.405C102.37 57.4971 102.317 56.8938 102.317 56.2195V49.2639H100.649V54.4096C100.649 55.7049 99.9745 56.5921 98.6259 56.5921C97.2242 56.5921 96.6918 55.563 96.6918 54.3919V49.2639H95.0239V54.6403C95.0239 56.5744 96.2305 58.0649 98.2178 58.0649C99.2115 58.0649 100.276 57.6568 100.737 56.7696Z" fill="black"/>
<path d="M106.674 57.7987V49.2639H105.024V57.7987H106.674ZM104.652 46.0345C104.652 46.691 105.184 47.2233 105.841 47.2233C106.515 47.2233 107.047 46.691 107.047 46.0345C107.047 45.3602 106.515 44.8279 105.841 44.8279C105.184 44.8279 104.652 45.3602 104.652 46.0345Z" fill="black"/>
<path d="M110.527 53.5047C110.527 51.748 111.521 50.506 113.047 50.506C114.573 50.506 115.495 51.7125 115.495 53.4692C115.495 55.2258 114.555 56.5566 113.029 56.5566C111.432 56.5566 110.527 55.2613 110.527 53.5047ZM115.513 56.6454C115.513 57.1599 115.566 57.6035 115.602 57.7987H117.216C117.199 57.6568 117.128 57.0357 117.128 56.2195V44.9521H115.478V50.4705C115.194 49.7784 114.377 49.0332 112.869 49.0332C110.456 49.0332 108.824 51.0915 108.824 53.5047C108.824 56.0421 110.367 58.0294 112.869 58.0294C114.2 58.0294 115.105 57.3196 115.513 56.5034V56.6454Z" fill="black"/>
<path d="M123.637 56.5744C122.218 56.5744 120.975 55.5098 120.975 53.5224C120.975 51.5528 122.218 50.4882 123.637 50.4882C125.057 50.4882 126.299 51.5528 126.299 53.5224C126.299 55.5098 125.057 56.5744 123.637 56.5744ZM123.637 48.9977C121.082 48.9977 119.272 50.9318 119.272 53.5224C119.272 56.1308 121.082 58.0649 123.637 58.0649C126.192 58.0649 128.002 56.1308 128.002 53.5224C128.002 50.9318 126.192 48.9977 123.637 48.9977Z" fill="black"/>
<path d="M134.87 49.1752C134.782 49.1574 134.551 49.1219 134.32 49.1219C133.451 49.1219 132.386 49.4413 131.765 50.7544V49.2639H130.133V57.7987H131.801V53.5224C131.801 51.6416 132.741 50.8963 134.143 50.8963C134.374 50.8963 134.622 50.9141 134.87 50.9496V49.1752Z" fill="black"/>
<path d="M51.4335 75.4183H53.3144L48.3106 62.8378H46.3055L41.3017 75.4183H43.1648L44.4956 71.905H50.0672L51.4335 75.4183ZM47.2637 64.6477L49.4462 70.2903H45.1167L47.2637 64.6477Z" fill="black"/>
<path d="M60.363 74.3891C60.363 74.744 60.3985 75.2231 60.434 75.4183H62.0309C61.9955 75.1166 61.9422 74.5133 61.9422 73.8391V66.8834H60.2743V72.0292C60.2743 73.3245 59.6 74.2117 58.2515 74.2117C56.8497 74.2117 56.3174 73.1825 56.3174 72.0114V66.8834H54.6495V72.2599C54.6495 74.194 55.856 75.6844 57.8434 75.6844C58.837 75.6844 59.9017 75.2763 60.363 74.3891Z" fill="black"/>
<path d="M66.9743 64.1864H65.4483V65.5704C65.4483 66.3156 65.058 66.8834 64.1353 66.8834H63.6739V68.3917H65.3064V73.0761C65.3064 74.6198 66.2291 75.507 67.6841 75.507C68.2519 75.507 68.6777 75.4005 68.8197 75.3473V73.9278C68.6777 73.9633 68.3761 73.9988 68.1632 73.9988C67.2937 73.9988 66.9743 73.6084 66.9743 72.8277V68.3917H68.8197V66.8834H66.9743V64.1864Z" fill="black"/>
<path d="M74.5292 74.194C73.1097 74.194 71.8676 73.1293 71.8676 71.142C71.8676 69.1724 73.1097 68.1078 74.5292 68.1078C75.9487 68.1078 77.1908 69.1724 77.1908 71.142C77.1908 73.1293 75.9487 74.194 74.5292 74.194ZM74.5292 66.6173C71.9741 66.6173 70.1642 68.5514 70.1642 71.142C70.1642 73.7504 71.9741 75.6844 74.5292 75.6844C77.0844 75.6844 78.8942 73.7504 78.8942 71.142C78.8942 68.5514 77.0844 66.6173 74.5292 66.6173Z" fill="black"/>
<path d="M85.7625 66.7947C85.6738 66.777 85.4431 66.7415 85.2125 66.7415C84.343 66.7415 83.2784 67.0609 82.6573 68.3739V66.8834H81.0249V75.4183H82.6928V71.142C82.6928 69.2611 83.6333 68.5159 85.035 68.5159C85.2657 68.5159 85.5141 68.5336 85.7625 68.5691V66.7947Z" fill="black"/>
<path d="M89.1211 75.4183V66.8834H87.4709V75.4183H89.1211ZM87.0983 63.654C87.0983 64.3106 87.6306 64.8429 88.2872 64.8429C88.9614 64.8429 89.4938 64.3106 89.4938 63.654C89.4938 62.9798 88.9614 62.4474 88.2872 62.4474C87.6306 62.4474 87.0983 62.9798 87.0983 63.654Z" fill="black"/>
<path d="M98.1371 75.4183V73.91H93.364L98.0484 68.3384V66.8834H91.359V68.3917H95.9724L91.288 73.9633V75.4183H98.1371Z" fill="black"/>
<path d="M99.7086 73.1293C99.7086 74.4779 100.826 75.6844 102.565 75.6844C104.091 75.6844 104.943 74.8682 105.316 74.2649C105.316 74.886 105.369 75.2054 105.404 75.4183H107.037C107.001 75.2054 106.93 74.7618 106.93 74.0165V69.7402C106.93 68.0723 105.937 66.6173 103.382 66.6173C101.536 66.6173 100.063 67.7529 99.886 69.3853L101.483 69.758C101.589 68.7643 102.246 68.0368 103.417 68.0368C104.712 68.0368 105.262 68.7288 105.262 69.5628C105.262 69.8644 105.121 70.1306 104.606 70.2016L102.299 70.5387C100.826 70.7516 99.7086 71.6033 99.7086 73.1293ZM102.796 74.2827C101.944 74.2827 101.412 73.6794 101.412 73.0406C101.412 72.2776 101.944 71.8695 102.654 71.763L105.262 71.3727V71.763C105.262 73.6261 104.162 74.2827 102.796 74.2827Z" fill="black"/>
<path d="M110.718 71.1242C110.718 69.3676 111.711 68.1255 113.237 68.1255C114.763 68.1255 115.686 69.3321 115.686 71.0888C115.686 72.8454 114.745 74.1762 113.22 74.1762C111.623 74.1762 110.718 72.8809 110.718 71.1242ZM115.704 74.2649C115.704 74.7795 115.757 75.2231 115.792 75.4183H117.407C117.389 75.2763 117.318 74.6553 117.318 73.8391V62.5717H115.668V68.09C115.384 67.398 114.568 66.6528 113.06 66.6528C110.647 66.6528 109.014 68.7111 109.014 71.1242C109.014 73.6616 110.558 75.649 113.06 75.649C114.391 75.649 115.296 74.9392 115.704 74.123V74.2649Z" fill="black"/>
<path d="M123.828 74.194C122.408 74.194 121.166 73.1293 121.166 71.142C121.166 69.1724 122.408 68.1078 123.828 68.1078C125.247 68.1078 126.489 69.1724 126.489 71.142C126.489 73.1293 125.247 74.194 123.828 74.194ZM123.828 66.6173C121.273 66.6173 119.463 68.5514 119.463 71.142C119.463 73.7504 121.273 75.6844 123.828 75.6844C126.383 75.6844 128.193 73.7504 128.193 71.142C128.193 68.5514 126.383 66.6173 123.828 66.6173Z" fill="black"/>
<path fill-rule="evenodd" clip-rule="evenodd" d="M70.0415 31.9852V16.2582C70.0415 16.2231 70.0767 16.1119 70.1177 16.1119C70.1938 16.1119 70.2289 16.2582 70.2289 16.2992L74.0874 31.991H80.4286L84.252 16.3402C84.252 16.2641 84.3632 16.1177 84.3984 16.1177C84.4745 16.1177 84.4745 16.2641 84.4745 16.3051V31.9969H91.7056V6.51527H80.9497L77.3488 21.0946C77.3488 21.1649 77.3136 21.2058 77.2727 21.2058C77.1965 21.2058 77.2375 21.1707 77.2375 21.0946L73.6015 6.51527H62.8104V11.6327C62.8104 11.6678 62.8104 11.82 62.7753 11.82C62.6992 11.82 62.6992 11.82 62.6289 11.5624C61.7389 9.22619 60.5503 8.26009 59.4788 7.55748C57.6579 6.40987 54.5839 6 52.8391 6C49.5368 6.07612 46.3106 6.52113 43.8983 9.30233C42.376 11.0823 42.0071 14.1211 42.0071 14.9057H49.0918L49.1269 14.572C49.1269 14.4607 49.3143 13.2721 49.8706 12.7159C50.538 12.0484 51.7266 11.6795 52.8391 11.7146C53.6178 11.7908 54.6542 12.0484 55.0992 12.4934C55.6203 13.0145 55.954 14.127 55.4681 15.0521C55.1694 15.5732 53.9867 16.0533 53.4656 16.0533L53.0557 16.0884H50.052V21.0595H51.9433L52.4234 21.0946C52.6107 21.0946 53.9457 21.241 54.5371 21.9085C55.4271 22.7984 55.4622 24.0222 54.8708 25.0995C54.2795 26.2471 52.9445 26.4696 51.791 26.4696C50.3097 26.4345 49.2323 25.6148 48.6761 24.2095C48.4536 23.7294 48.3424 22.6169 48.3424 22.3183V21.9495H41L41.0351 22.7282C41.1464 24.9531 41.7026 26.7331 42.4462 27.9217C44.3023 31.0366 47.751 32.3365 52.277 32.4126C55.8779 32.4887 58.7704 31.4465 60.5093 30.0003C60.8782 29.6314 61.7331 29.1103 62.5879 27.5528C62.664 27.4416 62.6992 27.3303 62.7343 27.3303C62.8104 27.3303 62.8104 27.4064 62.8104 27.4416V32.0027H70.0415V31.9852ZM62.8104 15.4034V20.8955C62.8104 20.9716 62.8104 21.0419 62.7343 21.0829C62.6582 21.0829 62.6231 21.0068 62.5879 20.9365C61.9204 19.824 61.4403 19.379 60.1756 18.5242C60.0644 18.4481 60.0292 18.3017 60.1756 18.1904C61.3232 17.4468 61.9907 16.9667 62.6231 15.4444C62.6582 15.3683 62.6582 15.298 62.7343 15.298C62.7753 15.2921 62.8104 15.3273 62.8104 15.4034Z" fill="#D40012"/>
</svg>
