<svg width="176" height="82" viewBox="0 0 176 82" fill="none" xmlns="http://www.w3.org/2000/svg">
<path d="M57.7315 37.0577L57.8629 37.1015C57.9943 37.1453 61.0382 38.0869 63.6003 38.0869C66.2937 38.0869 69.031 36.992 71.1442 35.065C73.0274 33.335 74.0786 30.9481 74.0786 28.3313C74.0786 25.7035 73.0493 23.3166 71.1661 21.5757C69.2609 19.8238 66.5675 18.8384 63.6003 18.8384H57.7206V37.0577H57.7315ZM63.5893 35.7876C62.1002 35.7876 60.8082 35.5248 60.3265 35.4153L60.2608 35.3935V21.1267H63.5893C68.2098 21.1267 71.4398 24.0611 71.4398 28.2765C71.4508 32.5357 68.0565 35.7876 63.5893 35.7876Z" fill="#474C50"/>
<path d="M82.8707 23.448C80.9218 23.448 79.1261 24.2144 77.8341 25.594C76.5421 26.9517 75.8414 28.7912 75.8414 30.7401C75.8414 32.8205 76.5859 34.638 77.9874 35.9957C79.3232 37.3096 81.1626 38.0322 83.1554 38.0322C85.6299 38.0322 87.4693 37.222 89.1883 35.4044L89.3197 35.273L87.7212 33.9154L87.6117 34.0249C86.3416 35.3168 84.9401 35.9081 83.232 35.9081C80.6699 35.9081 78.7867 34.2876 78.4144 31.7912L78.3925 31.7036H89.692L89.7139 31.5503C89.7358 31.3095 89.7358 31.0905 89.7358 30.8934C89.7358 28.835 89.1007 26.9736 87.9401 25.6378C86.6919 24.1925 84.9401 23.448 82.8707 23.448ZM87.1956 29.8204H78.3597L78.3816 29.7328C78.7538 27.1926 80.5495 25.5064 82.8269 25.5064C84.6883 25.5064 86.8124 26.6232 87.1846 29.7328V29.8204H87.1956Z" fill="#474C50"/>
<path d="M102.557 37.7585H105.032V29.0539C105.032 27.3897 104.506 25.9663 103.543 24.959C102.535 23.9298 101.112 23.3823 99.382 23.3823C95.0899 23.3823 92.3636 24.8495 92.2541 24.9152L92.1665 24.959V37.7366H94.641V26.4043L94.6848 26.3824C95.9549 25.813 97.1593 25.5721 98.7579 25.5721C99.9404 25.5721 100.904 25.9444 101.561 26.6233C102.196 27.3021 102.546 28.3094 102.546 29.5357V37.7585H102.557Z" fill="#474C50"/>
<path d="M129.142 42.0067H131.616V37.1015L131.726 37.1453C133.521 37.846 134.726 38.065 136.565 38.065C140.66 38.065 143.211 35.262 143.211 30.7181C143.211 28.4626 142.532 26.6013 141.24 25.3312C139.97 24.083 138.131 23.426 135.919 23.426C132.218 23.426 129.361 24.8932 129.251 24.9589L129.164 25.0027L129.142 42.0067ZM136.532 35.8752C134.956 35.8752 133.576 35.6781 131.583 34.6489L131.539 34.627V26.4918L131.583 26.4699C131.977 26.2728 133.445 25.594 135.7 25.594C138.985 25.594 140.649 27.3239 140.649 30.7401C140.649 34.0467 139.182 35.8752 136.532 35.8752Z" fill="#474C50"/>
<path d="M131.321 47.5361C126.875 47.5361 123.996 50.4048 123.996 54.8611C123.996 57.0728 124.609 58.9342 125.791 60.2481C126.908 61.4963 128.507 62.197 130.28 62.197C132.098 62.197 133.499 61.8466 135.47 60.905L135.58 60.8612V61.9123H138.054V49.1347L137.967 49.0909C137.868 49.0252 135.043 47.5361 131.321 47.5361ZM130.685 60.0291C129.372 60.0291 128.342 59.5911 127.62 58.6933C126.919 57.8173 126.547 56.5034 126.547 54.9049C126.547 50.6347 129.262 49.7588 131.518 49.7588C133.795 49.7588 135.24 50.4376 135.634 50.6347L135.678 50.6566V58.3976L135.634 58.4195C133.773 59.5035 132.196 60.0291 130.685 60.0291Z" fill="#474C50"/>
<path d="M145.434 37.7584H147.908V19.5391H145.434V37.7584Z" fill="#474C50"/>
<path d="M150.69 41.306L150.843 41.3717C151.916 41.8753 152.814 42.0725 153.952 42.0725C156.23 42.0725 157.653 40.9118 158.879 38.0869L165 23.667H162.35L157.861 34.846L152.781 23.667H150.044L156.646 37.5176L156.624 37.5395C155.836 39.2694 155.113 39.9045 153.887 39.9045C153.033 39.9045 152.419 39.7731 151.719 39.4228L151.565 39.3352L150.69 41.306Z" fill="#474C50"/>
<path d="M56.7899 59.0437L56.9213 59.1532C59.3301 61.2116 61.8703 62.1751 64.9689 62.1751C66.9178 62.1751 68.604 61.6714 69.8303 60.7079C71.1004 59.7225 71.7573 58.3429 71.7573 56.7224C71.7573 53.8538 69.8303 52.2114 65.3083 51.2698C60.9724 50.372 60.1841 49.4084 60.1841 47.8099C60.1841 46.1237 61.8046 44.9631 64.1258 44.9631C66.1404 44.9631 67.8704 45.5981 69.6003 46.9339L69.7317 47.0434L71.2208 45.1602L71.0894 45.0507C68.9872 43.4302 66.9069 42.7295 64.1586 42.7295C60.3702 42.7295 57.6001 44.9412 57.6001 47.9851C57.6001 49.5836 58.1257 50.7223 59.2425 51.6201C60.2717 52.4304 61.8703 53.0435 64.2353 53.5472C68.374 54.3793 69.1405 55.3428 69.1405 56.9195C69.1405 58.7152 67.4762 59.9196 65.0017 59.9196C62.4834 59.9196 60.6002 59.1751 58.4651 57.3356L58.3337 57.2261L56.7899 59.0437Z" fill="#474C50"/>
<path d="M98.0024 47.5361C93.7103 47.5361 90.3489 50.777 90.3489 54.9049C90.3489 58.9998 93.6775 62.2298 97.9586 62.2298C100.061 62.2298 102.01 61.4634 103.455 60.04C104.857 58.6604 105.645 56.821 105.645 54.872C105.601 50.7552 102.273 47.5361 98.0024 47.5361ZM98.0024 60.0509C95.1337 60.0509 92.9001 57.7735 92.9001 54.8611C92.9001 53.4377 93.4037 52.1457 94.3016 51.2041C95.2213 50.2406 96.5133 49.715 97.9586 49.715C100.849 49.715 103.105 51.9924 103.105 54.9268C103.105 56.3283 102.601 57.6202 101.681 58.5619C100.718 59.5035 99.4258 60.0509 98.0024 60.0509Z" fill="#474C50"/>
<path d="M118.696 61.9123H121.171V53.2078C121.171 51.5435 120.645 50.1201 119.682 49.1128C118.674 48.0836 117.251 47.5361 115.521 47.5361C111.229 47.5361 108.503 49.0033 108.393 49.069L108.305 49.1128V61.9123H110.78V50.58L110.824 50.5581C112.094 49.9887 113.298 49.7478 114.897 49.7478C116.079 49.7478 117.043 50.1201 117.7 50.7989C118.335 51.4778 118.685 52.4851 118.685 53.7114V61.9123H118.696Z" fill="#474C50"/>
<path d="M74.834 61.9121H77.3085V47.8425H74.834V61.9121Z" fill="#474C50"/>
<path d="M81.0531 61.9123H83.5276V50.4267L83.5495 50.4048C84.1846 49.9668 85.1043 49.6822 86.024 49.6822C87.535 49.6822 88.4328 50.1858 89.3088 50.6676L89.5715 50.8209L90.6446 48.85L90.4913 48.7624C89.1336 47.996 87.9511 47.5361 86.024 47.5361C82.9145 47.5361 81.1845 48.8062 81.1188 48.85L81.0531 48.8938V61.9123Z" fill="#474C50"/>
<path d="M108.284 19.5391V34.0904C108.284 35.4919 108.678 36.5431 109.422 37.2C110.167 37.857 111.065 37.9883 111.7 37.9883C112.488 37.9883 113.211 37.835 113.933 37.5066L113.189 35.5576C112.86 35.7109 112.554 35.7985 112.247 35.7985C111.59 35.7985 110.758 35.7985 110.758 33.8277V25.8238H113.233V23.6779H110.758V19.5391H108.284Z" fill="#474C50"/>
<path d="M74.7903 46.1127H77.4399V43.7039H74.7903V46.1127Z" fill="#474C50"/>
<path d="M21.6104 18.8384C35.3515 18.8384 45.0415 27.5648 44.9758 40.0797C44.9539 42.8388 44.6035 44.3279 44.078 46.3535C41.9757 40.5505 36.0085 38.2183 27.0083 36.335C14.0774 33.2474 12.3255 30.3678 11.8876 26.3823V18.8603C11.8547 18.8603 21.6542 18.8384 21.6104 18.8384Z" fill="#474C50"/>
<path d="M38.7786 53.2515C38.7786 48.609 36.2822 46.3426 24.7309 43.8462C17.7344 42.3352 14.7343 41.087 11.8438 38.7439V58.4742C15.7417 60.8611 21.3148 62.3064 24.2272 62.3064C34.0376 62.3064 38.7786 58.0143 38.7786 53.2515Z" fill="#474C50"/>
<path d="M115.401 35.8751L115.532 35.9846C117.152 37.2547 119.474 38.043 121.565 38.043C123.032 38.043 124.346 37.6489 125.288 36.9263C126.295 36.1598 126.842 35.0649 126.842 33.751V33.7072C126.842 30.9699 123.996 30.1597 122.134 29.6122L122.09 29.5904C120.295 29.0648 118.587 28.5611 118.587 27.4224V27.3786C118.587 26.3056 119.66 25.561 121.171 25.561C122.485 25.561 123.952 26.0209 125.309 26.8531L125.463 26.9406L126.623 25.1012L126.47 25.0136C124.937 24.0501 122.988 23.4807 121.236 23.4807C118.258 23.4807 116.2 25.1669 116.2 27.5757V27.6195C116.2 30.3349 119.003 31.1013 121.061 31.6488C122.944 32.1524 124.499 32.678 124.499 33.9043V33.9481C124.499 35.1525 123.382 35.9408 121.718 35.9408C120.098 35.9408 118.433 35.3496 116.857 34.2328L116.725 34.1233L115.401 35.8751Z" fill="#474C50"/>
</svg>
