<svg width="176" height="82" viewBox="0 0 176 82" fill="none" xmlns="http://www.w3.org/2000/svg">
<path d="M163.735 51.7837H152.044C149.136 51.7837 146.779 49.4267 146.779 46.5186V46.4248C146.779 43.5166 149.136 41.1597 152.044 41.1597H161.003C162.105 41.1597 162.996 42.0509 162.996 43.1531C162.996 44.2554 162.105 45.1466 161.003 45.1466H152.044C151.34 45.1466 150.754 45.7212 150.754 46.4365V46.5303C150.754 47.2339 151.328 47.8202 152.044 47.8202H163.735C164.438 47.8202 165.025 47.2456 165.025 46.5303V40.0457C165.025 39.3421 164.45 38.7558 163.735 38.7558H151.657C150.554 38.7558 149.663 37.8646 149.663 36.7623C149.663 35.66 150.554 34.7688 151.657 34.7688H163.735C166.643 34.7688 169 37.1258 169 40.0339V46.5186C169 49.4267 166.631 51.7837 163.735 51.7837Z" fill="#284184"/>
<path d="M59.7105 51.7837H48.0194C45.1112 51.7837 42.7542 49.4267 42.7542 46.5186V46.4248C42.7542 43.5166 45.1112 41.1597 48.0194 41.1597H56.9783C58.0805 41.1597 58.9717 42.0509 58.9717 43.1531C58.9717 44.2554 58.0805 45.1466 56.9783 45.1466H48.0194C47.3158 45.1466 46.7295 45.7212 46.7295 46.4365V46.5303C46.7295 47.2339 47.304 47.8202 48.0194 47.8202H59.7105C60.4141 47.8202 61.0004 47.2456 61.0004 46.5303V40.0457C61.0004 39.3421 60.4258 38.7558 59.7105 38.7558H47.6324C46.5301 38.7558 45.6389 37.8646 45.6389 36.7623C45.6389 35.66 46.5301 34.7688 47.6324 34.7688H59.7105C62.6186 34.7688 64.9756 37.1258 64.9756 40.0339V46.5186C64.9756 49.4267 62.6069 51.7837 59.7105 51.7837Z" fill="#284184"/>
<path d="M110.321 51.7837H99.0993C96.1912 51.7837 93.8342 49.4267 93.8342 46.5186V36.7623C93.8342 35.66 94.7254 34.7688 95.8276 34.7688C96.9299 34.7688 97.8211 35.66 97.8211 36.7623V46.5186C97.8211 47.2222 98.3957 47.8085 99.111 47.8085H110.333C111.037 47.8085 111.623 47.2339 111.623 46.5186V36.7623C111.623 35.66 112.514 34.7688 113.616 34.7688C114.719 34.7688 115.61 35.66 115.61 36.7623V46.5186C115.587 49.4267 113.218 51.7837 110.321 51.7837Z" fill="#284184"/>
<path d="M128.837 51.7837C127.735 51.7837 126.844 50.8925 126.844 49.7903V40.0339C126.844 37.1258 129.201 34.7688 132.109 34.7688H144.011C145.113 34.7688 146.005 35.66 146.005 36.7623C146.005 37.8646 145.113 38.7558 144.011 38.7558H132.109C131.405 38.7558 130.819 39.3303 130.819 40.0457V49.802C130.831 50.8925 129.94 51.7837 128.837 51.7837Z" fill="#284184"/>
<path d="M121.274 51.7837C120.172 51.7837 119.28 50.8925 119.28 49.7903V36.7388C119.28 35.6366 120.172 34.7454 121.274 34.7454C122.376 34.7454 123.267 35.6366 123.267 36.7388V49.7903C123.267 50.8925 122.376 51.7837 121.274 51.7837Z" fill="#284184"/>
<path d="M121.274 32.9982C120.172 32.9982 119.28 32.107 119.28 31.0047V30.911C119.28 29.8087 120.172 28.9175 121.274 28.9175C122.376 28.9175 123.267 29.8087 123.267 30.911V31.0047C123.267 32.107 122.376 32.9982 121.274 32.9982Z" fill="#284184"/>
<path d="M34.5106 34.7808H26.7595C25.5165 34.7808 24.379 35.2146 23.4878 35.9299C22.5849 35.2146 21.4475 34.7808 20.2162 34.7808H12.4651C9.55695 34.7808 7.19995 37.1377 7.19995 40.0459V49.8022C7.19995 50.9045 8.09115 51.7957 9.19343 51.7957C10.2957 51.7957 11.1869 50.9045 11.1869 49.8022V40.0459C11.1869 39.3423 11.7615 38.756 12.4768 38.756H20.2279C20.9315 38.756 21.5178 39.3306 21.5178 40.0459V49.04C21.5178 50.1423 22.409 51.0335 23.5113 51.0335C24.6136 51.0335 25.5048 50.1423 25.5048 49.04V40.0459C25.5048 39.3423 26.0794 38.756 26.7947 38.756H34.5458C35.2494 38.756 35.8357 39.3306 35.8357 40.0459V49.8022C35.8357 50.9045 36.7269 51.7957 37.8291 51.7957C38.9314 51.7957 39.8226 50.9045 39.8226 49.8022V40.0459C39.7757 37.1377 37.407 34.7808 34.5106 34.7808Z" fill="#284184"/>
<path d="M88.5573 45.44C89.6596 45.44 90.5508 44.5488 90.5508 43.4465V40.0459C90.5508 37.1377 88.1937 34.7808 85.2856 34.7808H73.5945C70.6863 34.7808 68.3293 37.1377 68.3293 40.0459V46.2726C68.3293 49.1807 70.6863 51.5377 73.5945 51.5377H85.8837L87.1501 52.8041C87.9241 53.5781 89.1905 53.5781 89.9644 52.8041C90.7384 52.0302 90.7384 50.7638 89.9644 49.9898L88.1351 48.1605C87.842 47.8673 87.4667 47.6797 87.0798 47.6094C86.939 47.5742 86.7983 47.5625 86.6576 47.5625H73.5945C72.8909 47.5625 72.3046 46.9879 72.3046 46.2726V40.0459C72.3046 39.3423 72.8792 38.756 73.5945 38.756H85.2856C85.9892 38.756 86.5755 39.3306 86.5755 40.0459V43.4465C86.5638 44.5488 87.455 45.44 88.5573 45.44Z" fill="#284184"/>
</svg>
