<svg width="25" height="20" viewBox="0 0 25 20" fill="none" xmlns="http://www.w3.org/2000/svg">
<rect x="0.398193" width="24" height="20" rx="3" fill="#3498D8"/>
<path fill-rule="evenodd" clip-rule="evenodd" d="M5.31007 10.2571H6.53612L5.9231 8.54286L5.31007 10.2571ZM22.3982 7H19.2564L18.4901 7.94286L17.8005 7H11.1338L10.5208 8.54286L9.90777 7H7.22578V7.68571L6.91927 7H4.62042L2.39819 13H5.08019L5.3867 12.0571H6.15298L6.4595 13H9.448V12.3143L9.67789 13H11.2105L11.4403 12.2286V13H17.5706L18.3369 12.0571L19.0265 13H22.1683L20.176 10L22.3982 7ZM13.1262 12.1429H12.2833V8.8L10.9806 12.1429H10.2143L8.9116 8.8V12.1429H7.14915L6.84264 11.2H5.00356L4.69704 12.1429H3.70088L5.31007 7.85714H6.61275L8.06869 11.8857V7.85714H9.52463L10.6741 10.7714L11.7469 7.85714H13.2028V12.1429H13.1262ZM20.7124 12.1429H19.5629L18.5668 10.6857L17.4173 12.1429H13.9691V7.85714H17.494L18.5668 9.22857L19.7162 7.85714H20.789L19.1032 10L20.7124 12.1429ZM14.812 8.71429V9.48571H16.7277V10.3429H14.812V11.2H16.9576L17.9537 9.91429L17.0342 8.71429H14.812Z" fill="white"/>
</svg>
