<svg width="23" height="16" viewBox="0 0 23 16" fill="none" xmlns="http://www.w3.org/2000/svg">
<path d="M4.43272 15.329H2.79094C1.77908 15.329 0.958191 14.5081 0.958191 13.4963V11.6521" stroke="#99A2AB" stroke-width="1.25" stroke-miterlimit="10" stroke-linecap="round" stroke-linejoin="round"/>
<path d="M21.8082 11.8545V13.4963C21.8082 14.5081 20.9873 15.329 19.9755 15.329H18.3337" stroke="#99A2AB" stroke-width="1.25" stroke-miterlimit="10" stroke-linecap="round" stroke-linejoin="round"/>
<path d="M18.2824 1.43091H19.9726C20.9845 1.43091 21.8054 2.2518 21.8054 3.26366V4.90544" stroke="#99A2AB" stroke-width="1.25" stroke-miterlimit="10" stroke-linecap="round" stroke-linejoin="round"/>
<path d="M0.958191 4.90544V3.26366C0.958191 2.2518 1.77908 1.43091 2.79094 1.43091H4.44412" stroke="#99A2AB" stroke-width="1.25" stroke-miterlimit="10" stroke-linecap="round" stroke-linejoin="round"/>
<path d="M4.43271 4.9054V11.8545" stroke="#99A2AB" stroke-width="1.25" stroke-miterlimit="10" stroke-linecap="round" stroke-linejoin="round"/>
<path d="M18.3308 4.9054V11.8545" stroke="#99A2AB" stroke-width="1.25" stroke-miterlimit="10" stroke-linecap="round" stroke-linejoin="round"/>
<path d="M16.0164 4.9054V10.1186" stroke="#99A2AB" stroke-width="1.25" stroke-miterlimit="10" stroke-linecap="round" stroke-linejoin="round"/>
<path d="M11.3818 4.9054V10.1186" stroke="#99A2AB" stroke-width="1.25" stroke-miterlimit="10" stroke-linecap="round" stroke-linejoin="round"/>
<path d="M6.75006 4.9054V10.1186" stroke="#99A2AB" stroke-width="1.25" stroke-miterlimit="10" stroke-linecap="round" stroke-linejoin="round"/>
<path d="M13.6991 4.9054V10.1186" stroke="#99A2AB" stroke-width="1.25" stroke-miterlimit="10" stroke-linecap="round" stroke-linejoin="round"/>
<path d="M9.06732 4.9054V10.1186" stroke="#99A2AB" stroke-width="1.25" stroke-miterlimit="10" stroke-linecap="round" stroke-linejoin="round"/>
<path fill-rule="evenodd" clip-rule="evenodd" d="M6.0224 11.8546C6.0224 11.4527 6.34816 11.127 6.75001 11.127C7.15186 11.127 7.47762 11.4527 7.47762 11.8546C7.47762 12.2564 7.15186 12.5822 6.75001 12.5822C6.34816 12.5822 6.0224 12.2564 6.0224 11.8546Z" fill="#99A2AB"/>
<path fill-rule="evenodd" clip-rule="evenodd" d="M8.33975 11.8546C8.33975 11.4527 8.66552 11.127 9.06736 11.127C9.46922 11.127 9.79497 11.4527 9.79497 11.8546C9.79497 12.2564 9.46922 12.5822 9.06736 12.5822C8.66552 12.5822 8.33975 12.2564 8.33975 11.8546Z" fill="#99A2AB"/>
<path fill-rule="evenodd" clip-rule="evenodd" d="M10.6542 11.8546C10.6542 11.4527 10.9799 11.127 11.3818 11.127C11.7836 11.127 12.1094 11.4527 12.1094 11.8546C12.1094 12.2564 11.7836 12.5822 11.3818 12.5822C10.9799 12.5822 10.6542 12.2564 10.6542 11.8546Z" fill="#99A2AB"/>
<path fill-rule="evenodd" clip-rule="evenodd" d="M12.9715 11.8546C12.9715 11.4527 13.2973 11.127 13.6991 11.127C14.101 11.127 14.4267 11.4527 14.4267 11.8546C14.4267 12.2564 14.101 12.5822 13.6991 12.5822C13.2973 12.5822 12.9715 12.2564 12.9715 11.8546Z" fill="#99A2AB"/>
<path fill-rule="evenodd" clip-rule="evenodd" d="M15.2888 11.8546C15.2888 11.4527 15.6146 11.127 16.0164 11.127C16.4183 11.127 16.744 11.4527 16.744 11.8546C16.744 12.2564 16.4183 12.5822 16.0164 12.5822C15.6146 12.5822 15.2888 12.2564 15.2888 11.8546Z" fill="#99A2AB"/>
</svg>
