<svg width="25" height="20" viewBox="0 0 25 20" fill="none" xmlns="http://www.w3.org/2000/svg">
<rect x="0.398193" width="24" height="20" rx="3" fill="#0F0F12"/>
<path fill-rule="evenodd" clip-rule="evenodd" d="M11.4128 6L11.4212 12.2391C11.422 12.8314 11.584 13.1114 12.0457 13.3047L13.2632 13.8144L13.7315 12.6098L12.6921 12.2099C12.6149 12.1802 12.6076 12.1289 12.6076 12.0706V6H11.4128ZM9.16444 9.44784L5.83311 10.868C5.82794 10.8113 5.82508 10.7538 5.82508 10.6957C5.82508 9.65318 6.67931 8.80808 7.73307 8.80808C8.30318 8.80808 8.81485 9.05561 9.16444 9.44784ZM7.73307 7.39644C9.30504 7.39644 10.6227 8.4725 10.9752 9.92072L9.63105 10.5022L9.63074 10.4994L8.25563 11.0971L4.95691 12.524C4.60402 12.0006 4.39819 11.372 4.39819 10.6957C4.39819 8.87353 5.89124 7.39644 7.73307 7.39644ZM10.0634 13.0558C8.86931 14.177 7.28968 14.287 5.9017 13.4533L6.68591 12.2738C7.47572 12.7408 8.26914 12.6651 9.06623 12.0459L10.0634 13.0558Z" fill="#FFFFFE"/>
<path fill-rule="evenodd" clip-rule="evenodd" d="M15.7315 12.0833C15.3222 11.7393 15.0587 11.2025 15.0587 10.5987C15.0587 10.0619 15.2672 9.57803 15.6009 9.23546L14.8957 8C14.1868 8.60712 13.7315 9.54513 13.7315 10.5987C13.7315 11.7342 14.26 12.736 15.0655 13.3333L15.7315 12.0833Z" fill="#2191C3"/>
<path fill-rule="evenodd" clip-rule="evenodd" d="M16.3687 8.88714C16.5763 8.8153 16.8001 8.77592 17.0334 8.77592C17.8745 8.77592 18.5917 9.28486 18.8719 10L20.3982 9.87732C20.0298 8.41752 18.6636 7.33337 17.0334 7.33337C16.5728 7.33337 16.1336 7.42067 15.7315 7.57777L16.3687 8.88714Z" fill="#FAEC32"/>
<path fill-rule="evenodd" clip-rule="evenodd" d="M18.8576 10.6666C18.8065 11.6966 17.9226 12.5165 16.8395 12.5165C16.6697 12.5165 16.5049 12.4961 16.3474 12.4582L15.7315 13.8301C16.0804 13.9398 16.4525 14 16.8395 14C18.7579 14 20.3213 12.5408 20.3982 10.7133L18.8576 10.6666Z" fill="#D0362B"/>
</svg>
