<svg width="24" height="20" viewBox="0 0 24 20" fill="none" xmlns="http://www.w3.org/2000/svg">
<rect width="24" height="20" rx="2.05714" fill="#B3131B"/>
<path d="M10.3543 13.9973L2 14V13.9816C2 13.9714 2.01332 13.9055 2.02961 13.8351C2.04597 13.7648 2.07125 13.6528 2.08593 13.5864C2.10056 13.5199 2.12563 13.4072 2.14156 13.3356C2.1808 13.1606 2.21959 12.9857 2.2579 12.8107C2.27294 12.7416 2.29805 12.6287 2.31376 12.5598C2.33375 12.4715 2.35352 12.3833 2.37314 12.295C2.39013 12.2183 2.41593 12.1012 2.43049 12.0347C2.44503 11.9683 2.46825 11.8659 2.48194 11.8072C2.49565 11.7484 2.51316 11.669 2.52079 11.6307C2.52848 11.5923 2.55328 11.4794 2.57593 11.3798C2.595 11.2963 2.61354 11.2127 2.63149 11.1289C2.63939 11.0906 2.6645 10.9777 2.6873 10.878C2.71007 10.7784 2.73508 10.6655 2.74286 10.6272C2.75064 10.5889 2.77584 10.4759 2.79879 10.3764C2.82174 10.2767 2.84654 10.1658 2.85384 10.1301C2.8612 10.0943 2.88124 10.0024 2.89847 9.92572C2.91561 9.84906 2.94819 9.70478 2.97075 9.60515C2.99337 9.50549 3.03195 9.332 3.0565 9.21955C3.08115 9.10712 3.11058 8.97335 3.12191 8.92225C3.15528 8.77197 3.18889 8.6218 3.22283 8.47164C3.23955 8.39755 3.26677 8.27629 3.28333 8.20214C3.29986 8.12808 3.32536 8.01304 3.33998 7.94665C3.35455 7.88021 3.3795 7.76942 3.39534 7.70046C3.4112 7.63143 3.43852 7.51017 3.45599 7.43096C3.47349 7.35177 3.5028 7.23051 3.52112 7.16151C3.53941 7.09252 3.56527 7.00891 3.57865 6.97571C3.59198 6.94247 3.62883 6.87047 3.6605 6.81569L3.71806 6.71609L3.77042 6.65307C3.79915 6.61844 3.85054 6.56374 3.88457 6.53147C3.91861 6.49919 3.97599 6.45067 4.01217 6.4236C4.04827 6.39651 4.10062 6.35995 4.12842 6.3424C4.15622 6.32482 4.21081 6.29405 4.24978 6.27397C4.28869 6.25396 4.34335 6.22774 4.37114 6.21571C4.39894 6.20367 4.45581 6.18165 4.4975 6.16681C4.53917 6.15206 4.61886 6.12723 4.67443 6.11169C4.73002 6.09617 4.83446 6.07276 4.90647 6.05974C4.97841 6.04663 5.09214 6.02916 5.15924 6.02089L5.28115 6.00583L13.6406 6.00294L22 6V6.01846C22 6.02859 21.9866 6.09445 21.9703 6.16483C21.9496 6.25384 21.9293 6.34297 21.9094 6.43212C21.8923 6.50879 21.8674 6.61963 21.854 6.67835C21.835 6.76195 21.8162 6.84556 21.7976 6.92922C21.78 7.00846 21.7529 7.12975 21.7375 7.19866C21.722 7.26768 21.6969 7.38059 21.6817 7.44959C21.6666 7.51855 21.6413 7.63143 21.6257 7.70043C21.6074 7.78092 21.5894 7.86144 21.5717 7.94201C21.5576 8.00588 21.5321 8.12083 21.5152 8.1975C21.4982 8.27413 21.4709 8.39539 21.4544 8.46697C21.438 8.53848 21.4132 8.64929 21.399 8.71316C21.3849 8.77701 21.3594 8.89201 21.3425 8.96865C21.3255 9.04532 21.2983 9.16655 21.2819 9.23812C21.2655 9.30969 21.2412 9.41838 21.2276 9.4797C21.1902 9.65008 21.1525 9.82043 21.1147 9.99073C21.1009 10.052 21.0766 10.1608 21.0604 10.2323C21.0398 10.3236 21.0193 10.415 20.999 10.5064C20.9813 10.5857 20.9561 10.6984 20.9429 10.7573C20.9296 10.816 20.905 10.9268 20.888 11.0034C20.868 11.0933 20.848 11.1832 20.8278 11.2729C20.8117 11.3445 20.7866 11.4574 20.7717 11.5238C20.7571 11.5902 20.7314 11.7052 20.7149 11.7793C20.6984 11.8534 20.6713 11.9746 20.6548 12.0487C20.6383 12.1229 20.6136 12.2337 20.5998 12.295C20.5811 12.3786 20.5626 12.4622 20.5441 12.5458C20.5242 12.6354 20.5038 12.7249 20.4828 12.8143L20.4524 12.9433L20.4161 13.0325C20.3962 13.0817 20.3662 13.147 20.3495 13.1776C20.3327 13.2083 20.2987 13.2624 20.2739 13.2978C20.249 13.3333 20.2143 13.3787 20.1968 13.3987C20.1793 13.4189 20.1267 13.4707 20.0797 13.5139L19.9945 13.5925L19.9124 13.6461C19.8673 13.6756 19.8186 13.7056 19.8044 13.7128C19.79 13.7199 19.7357 13.7454 19.6835 13.7695C19.6313 13.7935 19.5577 13.824 19.5198 13.8373C19.4819 13.8507 19.4068 13.8734 19.3529 13.8878C19.299 13.9023 19.2413 13.9164 19.2246 13.9193C19.2079 13.9223 19.1501 13.9332 19.096 13.9438C19.0419 13.9543 18.9327 13.97 18.8533 13.9787L18.709 13.9945L10.3544 13.9973H10.3543ZM7.38192 12.0115H7.59933L7.60545 11.9968C7.60887 11.9887 7.61163 11.9697 7.61163 11.9546C7.61163 11.9394 7.6188 11.8844 7.62756 11.8322C7.63628 11.7801 7.65684 11.66 7.67322 11.5655C7.6896 11.4709 7.71407 11.3289 7.72766 11.2496C7.74053 11.1746 7.75285 11.0995 7.76451 11.0243C7.7712 10.9796 7.77932 10.943 7.78262 10.943C7.78589 10.943 7.79997 10.9628 7.81387 10.9869L7.83909 11.0308L7.89517 11.0827L7.95128 11.1346L8.0202 11.16L8.08924 11.1854L8.17142 11.1952L8.25372 11.205L8.35806 11.1991L8.46241 11.1932L8.57541 11.1663L8.68845 11.1394L8.74907 11.1141C8.7825 11.1001 8.84164 11.0695 8.88054 11.0462L8.95134 11.0039L9.01735 10.9432C9.05366 10.91 9.10486 10.8565 9.13111 10.8245C9.1574 10.7925 9.17886 10.764 9.17886 10.7611C9.17886 10.7583 9.19182 10.7385 9.20754 10.7171C9.22332 10.6957 9.25559 10.6364 9.27927 10.5853C9.30292 10.5342 9.33989 10.4422 9.36151 10.3809L9.4007 10.2694L9.42095 10.1729C9.4321 10.1197 9.44642 10.032 9.45284 9.9777L9.46441 9.87918L9.45768 9.79558L9.45099 9.71197L9.42992 9.62831L9.40884 9.54471L9.37466 9.48211L9.3405 9.41946L9.27455 9.35522L9.20857 9.29092L9.13054 9.25386L9.05248 9.21674L8.96651 9.19783L8.88054 9.17895L8.79458 9.17317L8.70871 9.16737L8.61293 9.17748L8.51718 9.18753L8.43903 9.20587L8.36094 9.22416L8.29302 9.2531C8.25569 9.26892 8.20133 9.2959 8.17232 9.313C8.14326 9.33008 8.11325 9.34972 8.10568 9.35669C8.09811 9.3636 8.07994 9.37648 8.06534 9.38523L8.03879 9.40119L8.05735 9.31954C8.06758 9.27467 8.07609 9.23277 8.07631 9.22634L8.07673 9.21473H7.70598L7.67349 9.40289C7.65559 9.50643 7.62737 9.66631 7.61075 9.75832C7.57408 9.96123 7.53699 10.1641 7.49947 10.3669C7.48297 10.4563 7.45562 10.5985 7.43873 10.6828C7.42186 10.7671 7.39715 10.8904 7.3838 10.9569C7.37048 11.0234 7.34531 11.1488 7.32802 11.2356C7.30759 11.3378 7.28693 11.4401 7.26607 11.5422C7.24636 11.6384 7.22622 11.7343 7.2056 11.8303C7.18907 11.9069 7.17311 11.9791 7.17002 11.9906L7.16448 12.0115H7.38192V12.0115V12.0115ZM8.31785 10.9373L8.23346 10.9419L8.17829 10.933L8.12309 10.9241L8.06707 10.9006L8.01096 10.877L7.97184 10.8427L7.93272 10.8083L7.9101 10.7619C7.89765 10.7363 7.88167 10.6929 7.87464 10.6654L7.86174 10.6153L7.86692 10.5353L7.87213 10.4552L7.89814 10.3298C7.91779 10.2339 7.93684 10.1379 7.95531 10.0418C7.97241 9.95234 7.99837 9.82125 8.0129 9.75056L8.03936 9.62197L8.09735 9.57763C8.12924 9.55328 8.17974 9.52058 8.2096 9.50507L8.26386 9.47679L8.33459 9.45666L8.40539 9.4365L8.49641 9.4316L8.58743 9.42667L8.6615 9.44123L8.73559 9.45572L8.78795 9.47786L8.84021 9.5L8.88406 9.54052L8.92793 9.58103L8.95152 9.62392C8.9646 9.64751 8.98283 9.69371 8.99216 9.72652L9.00908 9.78623L9.00394 9.96281L8.99873 10.1393L8.97278 10.2437C8.95852 10.3011 8.93132 10.3889 8.9124 10.4388L8.87794 10.5296L8.8357 10.6031C8.81248 10.6435 8.77674 10.6981 8.75618 10.7244C8.73565 10.7508 8.70292 10.7849 8.68345 10.8002C8.65992 10.8187 8.63573 10.8365 8.61105 10.8536L8.57396 10.879L8.48818 10.9058L8.40236 10.9326L8.31785 10.9373V10.9373ZM10.4175 11.1926L10.5287 11.1939L10.6399 11.1845C10.7011 11.1794 10.8012 11.1687 10.8624 11.1608C10.9236 11.1529 11.0292 11.1351 11.0972 11.1214L11.2208 11.0964L11.227 11.0545C11.2304 11.0315 11.2442 10.963 11.2578 10.9022L11.2825 10.7917L11.277 10.7867L11.2716 10.7817L11.2338 10.7985C11.213 10.8077 11.1483 10.8297 11.0899 10.8474L10.9839 10.8795L10.8725 10.8993L10.7613 10.9192L10.5843 10.9195L10.4073 10.9197L10.3466 10.9019C10.3132 10.8922 10.2642 10.8743 10.2376 10.8622L10.1892 10.8402L10.1493 10.807L10.1093 10.7739L10.0782 10.7238L10.047 10.6737L10.0275 10.611L10.0079 10.5482L10.0078 10.432L10.0076 10.3158L10.025 10.2122L10.0424 10.1085L10.1945 10.102L10.3466 10.0955L10.909 10.0988L11.4715 10.1021L11.4884 10.0359C11.4978 9.9995 11.5121 9.92425 11.5202 9.86868L11.5349 9.76763L11.5353 9.68267L11.5356 9.59768L11.5196 9.53417L11.5036 9.47076L11.4771 9.42874C11.4626 9.40564 11.4369 9.37215 11.42 9.35428C11.4033 9.33647 11.3733 9.31133 11.3534 9.29845C11.3335 9.28557 11.2946 9.26391 11.2668 9.25032L11.2161 9.22561L11.1278 9.20607L11.0395 9.18656L10.9307 9.17699L10.8218 9.1674L10.7207 9.17343L10.6196 9.17951L10.4983 9.20092L10.377 9.22235L10.3011 9.25018C10.2594 9.26547 10.1957 9.29341 10.1595 9.31227C10.1234 9.33109 10.0733 9.36176 10.0483 9.38039C10.0233 9.39901 9.97992 9.43525 9.95201 9.4609C9.92409 9.48655 9.88269 9.53256 9.8602 9.56325C9.83764 9.59394 9.80306 9.64824 9.78335 9.68406C9.7636 9.71984 9.73793 9.76998 9.72621 9.79555C9.71455 9.82108 9.69332 9.87335 9.67906 9.91168C9.66474 9.95002 9.64233 10.0232 9.62922 10.0743C9.61378 10.1362 9.60042 10.1986 9.58919 10.2612L9.57311 10.3553L9.57326 10.4935L9.57341 10.6318L9.5888 10.6922C9.59718 10.7254 9.61338 10.7756 9.62468 10.8037C9.63594 10.8318 9.6569 10.8736 9.67113 10.8966C9.68539 10.9195 9.71579 10.9566 9.73871 10.9789C9.76167 11.0011 9.80315 11.0349 9.83098 11.0539C9.85877 11.0729 9.90825 11.0996 9.94092 11.1134L10.0004 11.1382L10.0833 11.1566C10.1289 11.1667 10.1976 11.1788 10.2362 11.1833C10.2747 11.1878 10.3562 11.1921 10.4175 11.1926ZM10.6079 9.88379C10.328 9.88379 10.099 9.88198 10.099 9.87969C10.099 9.8774 10.1109 9.84504 10.1255 9.80769C10.14 9.77032 10.1657 9.71475 10.1824 9.68417L10.2129 9.62851L10.2798 9.56741L10.3466 9.50623L10.4124 9.47738C10.4485 9.46147 10.4963 9.44417 10.5185 9.43893C10.5408 9.43367 10.6045 9.4267 10.6601 9.42348L10.7613 9.41747L10.8389 9.42665L10.9165 9.43582L10.9729 9.4596L11.0294 9.48333L11.0603 9.51399C11.0773 9.53086 11.0976 9.55569 11.1054 9.56917L11.1195 9.59369L11.1288 9.64813L11.1382 9.70257L11.1275 9.79317L11.1168 9.88377H10.6079V9.88379V9.88379ZM13.6328 11.1927L13.7441 11.1939L13.8705 11.1801C13.94 11.1725 14.0324 11.16 14.076 11.1523C14.1286 11.1425 14.181 11.1311 14.2327 11.118C14.2754 11.1069 14.314 11.0951 14.3185 11.0915C14.3229 11.0879 14.335 11.0457 14.3453 10.9977C14.3554 10.9498 14.3684 10.8854 14.3738 10.8547C14.3793 10.8241 14.3822 10.7974 14.3801 10.7953C14.3781 10.7934 14.3707 10.7959 14.3636 10.8011C14.3565 10.8063 14.3069 10.8255 14.2533 10.8437L14.1559 10.877L14.0173 10.9016L13.8787 10.9263L13.7608 10.9227L13.6429 10.9189L13.5759 10.8976L13.5089 10.8762L13.4572 10.8347L13.4054 10.7931L13.3712 10.7356L13.3368 10.6782L13.3205 10.6014L13.3041 10.5245L13.3043 10.4248L13.3043 10.3251L13.3242 10.2043L13.3441 10.0835L13.3651 10.0184C13.3766 9.98269 13.3897 9.94093 13.3942 9.92558C13.3986 9.91024 13.4171 9.86633 13.4353 9.82802C13.4536 9.78971 13.4861 9.73049 13.5076 9.69637L13.5467 9.63443L13.5948 9.58865L13.6429 9.54287L13.6938 9.5139L13.7447 9.48491L13.8101 9.4664C13.8461 9.45623 13.9096 9.44301 13.9513 9.43707L14.0272 9.42617L14.1383 9.43132L14.2496 9.43647L14.3811 9.46065L14.5125 9.4848L14.566 9.50309C14.5954 9.5132 14.6207 9.52143 14.6223 9.52143C14.6238 9.52143 14.6309 9.48692 14.638 9.44474C14.645 9.40261 14.6575 9.33325 14.6658 9.29067C14.6741 9.248 14.6789 9.21128 14.6765 9.20907C14.674 9.20681 14.6345 9.20109 14.5887 9.19627C14.5428 9.19149 14.4183 9.18297 14.3118 9.17731L14.1182 9.16711L13.9817 9.17674L13.8452 9.18637L13.744 9.20584L13.643 9.22538L13.5778 9.24933C13.542 9.2625 13.4895 9.28628 13.4613 9.3021C13.4342 9.31728 13.4075 9.33308 13.3812 9.34953C13.3655 9.35975 13.3178 9.39964 13.2751 9.43817L13.1977 9.50821L13.1544 9.56642C13.1307 9.59844 13.0895 9.66512 13.063 9.71472L13.0149 9.80486L12.978 9.9024C12.9576 9.95605 12.9293 10.0438 12.9149 10.0975L12.8889 10.1951L12.8794 10.2834L12.87 10.3716L12.87 10.4878L12.8702 10.6039L12.8797 10.6715L12.8892 10.7391L12.9195 10.8086L12.9498 10.8781L12.9848 10.9283L13.0197 10.9786L13.0754 11.0288L13.131 11.0791L13.1899 11.1077L13.2487 11.1363L13.326 11.156C13.3684 11.1668 13.4299 11.1793 13.4625 11.1837C13.495 11.188 13.5717 11.1922 13.6329 11.1927H13.6328V11.1927ZM15.2961 11.1893L15.4326 11.1857L15.5185 11.1655L15.6045 11.1452L15.6601 11.1211C15.6907 11.1078 15.7407 11.0816 15.7713 11.0628C15.8019 11.0441 15.8492 11.0083 15.8765 10.9835C15.9038 10.9586 15.9443 10.9163 15.9664 10.8893C15.9886 10.8624 16.008 10.8415 16.0097 10.843C16.0114 10.8445 16.0063 10.8875 15.9983 10.9385C15.9905 10.9895 15.984 11.0574 15.9839 11.0893L15.9836 11.1474H16.3548L16.3605 11.015L16.3662 10.8825L16.3926 10.7107C16.4072 10.6161 16.4307 10.476 16.445 10.3994C16.4592 10.3227 16.4837 10.1932 16.4998 10.1114C16.5157 10.0296 16.541 9.90208 16.5559 9.82799L16.5831 9.69329L16.584 9.5769L16.5849 9.46054L16.5563 9.40677L16.5276 9.35298L16.4888 9.31875L16.45 9.28447L16.3863 9.25482L16.3225 9.22507L16.2275 9.20565L16.1325 9.1862L16.0016 9.17711L15.8708 9.16796L15.7024 9.17756C15.6097 9.18283 15.4792 9.19322 15.4125 9.20066L15.2912 9.21417L15.2085 9.21448L15.1258 9.21479L15.1138 9.26827C15.1072 9.2976 15.0888 9.36742 15.0729 9.42339C15.057 9.47936 15.0456 9.52644 15.0474 9.52806C15.0491 9.52979 15.0934 9.52047 15.1456 9.50759C15.1979 9.49465 15.3089 9.47342 15.3924 9.46034L15.544 9.43658L15.6805 9.43146L15.817 9.42622L15.9049 9.44038L15.9928 9.45459L16.0515 9.48117L16.1102 9.50782L16.143 9.5528L16.1759 9.59782L16.1754 9.66877L16.175 9.73975L16.1576 9.8176L16.1401 9.89546L15.7763 9.89668L15.4125 9.89787L15.2934 9.9279C15.2279 9.94441 15.1554 9.9663 15.1323 9.97657C15.1091 9.98685 15.0859 9.99529 15.0808 9.99529C15.0757 9.99529 15.0367 10.0151 14.9943 10.0394L14.9171 10.0835L14.8563 10.1393C14.8228 10.1699 14.78 10.2159 14.7613 10.2415C14.7425 10.2671 14.712 10.3204 14.6935 10.3601L14.6599 10.4322L14.6444 10.5134L14.6289 10.5945V10.7648L14.6437 10.8357L14.6584 10.9065L14.6858 10.9528C14.7009 10.9782 14.7285 11.0155 14.7472 11.0356L14.7813 11.0721L14.8417 11.1058L14.9022 11.1396L14.9714 11.1576C15.0095 11.1675 15.0674 11.1795 15.1002 11.1842L15.1598 11.1928L15.2962 11.1893H15.2961V11.1893ZM15.4225 10.9294L15.3416 10.9334L15.288 10.9209C15.2585 10.9139 15.2138 10.8986 15.1887 10.8867L15.1429 10.8651L15.1178 10.8378C15.1041 10.8227 15.0831 10.7933 15.0712 10.7722L15.0495 10.734L15.0453 10.6446L15.041 10.5553L15.0581 10.5012C15.0676 10.4713 15.0896 10.4196 15.1073 10.3862L15.1393 10.3255L15.2006 10.2696L15.2619 10.2136L15.327 10.1848L15.392 10.156L15.4729 10.1383L15.5538 10.1207H16.0594L16.0753 10.1268L16.0913 10.1328L16.0778 10.2058C16.0705 10.2458 16.0528 10.3184 16.0387 10.3669C16.0244 10.4155 15.9994 10.4868 15.983 10.5256C15.9666 10.5642 15.9532 10.5984 15.9532 10.6015C15.9532 10.6047 15.9366 10.6328 15.9162 10.6641L15.8793 10.7211L15.8187 10.7763C15.7854 10.8066 15.7544 10.8315 15.7499 10.8315C15.7454 10.8315 15.725 10.8419 15.7045 10.8547L15.6673 10.8779L15.5853 10.9018L15.5032 10.9256L15.4225 10.9294V10.9294ZM18.7136 11.1926L18.8097 11.1937L18.9007 11.1801C18.9508 11.1727 19.0144 11.1607 19.0422 11.1534C19.07 11.1462 19.1202 11.1275 19.1535 11.1118L19.2142 11.0832L19.2664 11.041L19.3186 10.9988L19.3735 10.9314C19.4037 10.8944 19.4311 10.8578 19.4344 10.8501L19.4402 10.8362L19.4351 10.8826C19.4315 10.9137 19.4268 10.9447 19.4211 10.9756C19.4162 11.0011 19.4092 11.0502 19.4056 11.0847L19.3989 11.1474H19.7956V11.022L19.8257 10.785C19.8424 10.6547 19.867 10.4812 19.8803 10.3995C19.8937 10.3177 19.9145 10.2007 19.9265 10.1393C19.9383 10.078 19.9594 9.9672 19.9732 9.89311C19.9871 9.81905 20.0121 9.68941 20.0288 9.60509C20.0456 9.52075 20.0724 9.38698 20.0883 9.30774C20.1043 9.22855 20.1292 9.1052 20.1436 9.03368C20.158 8.96214 20.1838 8.83666 20.2009 8.75492C20.2188 8.66962 20.2373 8.58446 20.2564 8.49938C20.2699 8.44064 20.2809 8.38942 20.2809 8.3856V8.37861H19.8481L19.8417 8.43667C19.8382 8.46866 19.8217 8.57415 19.8049 8.67129C19.7851 8.78595 19.7649 8.90053 19.7442 9.01508C19.7323 9.08113 19.7204 9.14721 19.7088 9.21332L19.7033 9.24429L19.6863 9.23764C19.6768 9.23393 19.6259 9.22093 19.5731 9.20876L19.4771 9.18659L19.3457 9.17719L19.2142 9.16779L19.1029 9.17731L18.9917 9.18685L18.8906 9.21035L18.7895 9.23382L18.6934 9.27688L18.5973 9.31994L18.5265 9.36807L18.4558 9.4162L18.3946 9.47645C18.361 9.5096 18.3125 9.56435 18.2867 9.59824L18.24 9.65971L18.185 9.7648C18.1548 9.82261 18.118 9.89922 18.1033 9.93495C18.0885 9.97077 18.0625 10.05 18.0455 10.1112L18.0146 10.2223L17.9993 10.3668L17.9841 10.5111L17.9955 10.6272L18.007 10.7434L18.0205 10.7852C18.028 10.8082 18.0437 10.8492 18.0554 10.8762L18.0767 10.9255L18.1157 10.9739L18.1546 11.0223L18.1991 11.0558L18.2435 11.0892L18.3041 11.1169C18.3376 11.1321 18.3935 11.1518 18.4286 11.1606C18.4635 11.1694 18.5204 11.1801 18.5549 11.1842C18.5894 11.1881 18.6608 11.192 18.7136 11.1926V11.1926ZM18.8861 10.929L18.8097 10.9327L18.7582 10.9242C18.7299 10.9195 18.6845 10.9069 18.6574 10.8963L18.6082 10.8769L18.5667 10.8457L18.5253 10.8145L18.4945 10.7602L18.4638 10.7061L18.4496 10.6457L18.4356 10.5853L18.4368 10.4645L18.438 10.3437L18.4543 10.2368L18.4706 10.13L18.4959 10.0557C18.5099 10.0148 18.5213 9.9762 18.5214 9.96995C18.5215 9.96366 18.5352 9.93028 18.5519 9.89563C18.5716 9.8556 18.5923 9.81602 18.6142 9.77692C18.6316 9.74626 18.6641 9.69847 18.6865 9.67072C18.7089 9.64298 18.7488 9.60116 18.7752 9.57777C18.8015 9.55447 18.8435 9.52384 18.8684 9.50977L18.9136 9.4842L18.9931 9.45892L19.0726 9.43355L19.2395 9.4335H19.4064L19.5024 9.45799C19.5552 9.47149 19.6113 9.48706 19.627 9.49273L19.6557 9.50295L19.65 9.52843C19.647 9.54244 19.6349 9.6041 19.6233 9.6654C19.6117 9.72675 19.5888 9.84385 19.5724 9.92558C19.556 10.0073 19.5309 10.1307 19.5165 10.1997C19.5022 10.2687 19.4815 10.3565 19.4703 10.3948C19.459 10.4342 19.4474 10.4735 19.4357 10.5128C19.4276 10.5393 19.4085 10.5853 19.3933 10.615C19.378 10.6446 19.3512 10.6877 19.3337 10.7107C19.3163 10.7337 19.2868 10.7656 19.2682 10.7815C19.2497 10.7974 19.2094 10.8258 19.1788 10.8444L19.1232 10.8784L19.0428 10.9018L18.9625 10.9253L18.8861 10.929V10.929ZM4.00491 11.1474H4.25054L4.26819 11.0476C4.27785 10.9926 4.29681 10.887 4.31025 10.813L4.36584 10.5064C4.38298 10.4118 4.40872 10.2717 4.42298 10.1951C4.43721 10.1184 4.45992 9.99953 4.47331 9.93088C4.48678 9.86214 4.50032 9.80364 4.50344 9.80076L4.50913 9.79555H5.83028L5.83764 9.80229L5.845 9.80902L5.83352 9.86265C5.82725 9.89218 5.8086 9.98323 5.79216 10.065C5.77566 10.1467 5.74798 10.2847 5.73054 10.3716C5.71225 10.463 5.69366 10.5544 5.67473 10.6457C5.66141 10.7096 5.6344 10.8433 5.61475 10.943C5.59512 11.0426 5.57908 11.1294 5.57914 11.1358L5.57926 11.1474H6.07261L6.08351 11.0894C6.08954 11.0574 6.0992 11 6.10501 10.9616C6.11076 10.9233 6.12478 10.8417 6.13608 10.7805C6.14737 10.7191 6.1699 10.5978 6.18619 10.511C6.20245 10.4241 6.22977 10.2757 6.24678 10.1811C6.2638 10.0866 6.28905 9.9486 6.30295 9.87454C6.32048 9.78148 6.33877 9.68859 6.35776 9.59578C6.37405 9.51651 6.40121 9.38279 6.41814 9.29842C6.43506 9.21414 6.46035 9.08659 6.47434 9.01505C6.48842 8.94354 6.514 8.81393 6.53126 8.72704C6.54849 8.64015 6.57033 8.53876 6.57965 8.5017L6.5967 8.43429H6.09717L6.09039 8.47849C6.08666 8.5027 6.07461 8.57076 6.06359 8.62945C6.05254 8.68828 6.03252 8.79275 6.01905 8.86174C6.00557 8.93077 5.98098 9.06242 5.96433 9.15446C5.94804 9.24457 5.93235 9.33475 5.91728 9.42503L5.90041 9.52834L5.53378 9.53517L5.16712 9.54199L4.86005 9.53531C4.69114 9.5316 4.55201 9.52783 4.55086 9.52701C4.54967 9.52608 4.55543 9.48998 4.56357 9.44672C4.57435 9.39097 4.5858 9.33534 4.59797 9.27985C4.61347 9.20865 4.62852 9.13744 4.64315 9.0661C4.65729 8.99713 4.67328 8.91143 4.67876 8.87564C4.68415 8.83989 4.69556 8.78032 4.70401 8.7432C4.71249 8.70617 4.7286 8.62814 4.7398 8.56985C4.75098 8.5115 4.76291 8.45714 4.7663 8.44902L4.77242 8.43427H4.27691L4.26111 8.51561C4.25235 8.56034 4.2407 8.6241 4.23522 8.65728C4.22974 8.69051 4.21126 8.79711 4.19419 8.89422C4.17717 8.99133 4.15192 9.13557 4.1382 9.21476L4.08273 9.53531C4.06319 9.64691 4.04263 9.75846 4.02101 9.86978C4.00303 9.9612 3.98471 10.0526 3.966 10.1439C3.95282 10.2077 3.92778 10.329 3.91031 10.4133C3.89196 10.5017 3.87307 10.59 3.8536 10.6782C3.83988 10.7394 3.82474 10.8105 3.81998 10.8361C3.81514 10.8617 3.79949 10.9353 3.78516 10.9999C3.77084 11.0643 3.75912 11.1239 3.75912 11.1323V11.1473H4.00491V11.1474V11.1474ZM6.72457 11.1474H6.94204L6.94819 11.1327C6.95158 11.1246 6.95434 11.1034 6.95434 11.0856C6.95434 11.0678 6.96802 10.9751 6.98471 10.8796C7.02286 10.6621 7.06195 10.4448 7.10204 10.2276C7.11918 10.1361 7.13729 10.0447 7.15625 9.95347C7.17235 9.87683 7.19709 9.75767 7.2112 9.68867C7.22525 9.61968 7.25302 9.48845 7.27282 9.397C7.2926 9.30556 7.31128 9.22708 7.31431 9.2226L7.31982 9.21445L7.09986 9.21691L6.87994 9.21943L6.86159 9.3403C6.85154 9.40672 6.82949 9.53842 6.81266 9.63293C6.79582 9.72749 6.77036 9.87176 6.756 9.95347C6.73871 10.0512 6.72024 10.1488 6.70059 10.2462C6.68442 10.3254 6.65965 10.4466 6.64551 10.5156C6.6314 10.5847 6.60606 10.7059 6.58922 10.7851C6.57235 10.8643 6.54977 10.9688 6.53899 11.0173C6.52818 11.066 6.51658 11.1151 6.51322 11.1265L6.5071 11.1474H6.72457V11.1474ZM11.8113 11.1474H12.0272L12.0337 11.0635C12.0372 11.0173 12.0494 10.9243 12.0608 10.8567C12.0722 10.7892 12.0955 10.6545 12.1126 10.5574C12.1342 10.4374 12.1576 10.3177 12.1831 10.1983C12.2048 10.0978 12.2293 9.99798 12.2376 9.97643C12.2459 9.95483 12.2527 9.93147 12.2527 9.92448C12.2527 9.91746 12.2689 9.87929 12.2888 9.83969C12.3086 9.80008 12.3456 9.73941 12.3709 9.70484L12.417 9.64204L12.4786 9.58955L12.5403 9.53706L12.6164 9.50368L12.6925 9.4703L12.8088 9.47087L12.9251 9.47146L12.9823 9.48712C13.0137 9.49578 13.0421 9.50286 13.0455 9.50286C13.0487 9.50286 13.0514 9.49295 13.0514 9.48089C13.0514 9.46886 13.0629 9.40765 13.0768 9.34488C13.0907 9.28217 13.102 9.22821 13.102 9.22501C13.102 9.22175 13.069 9.20986 13.0287 9.1986C12.9884 9.18736 12.9327 9.17558 12.9049 9.17241L12.8542 9.16666L12.7886 9.17733C12.7524 9.18319 12.6987 9.19616 12.6692 9.20618C12.6396 9.21612 12.5908 9.23877 12.5607 9.25641C12.5307 9.27416 12.4839 9.30861 12.4568 9.33299C12.4296 9.35742 12.384 9.40671 12.3554 9.44247C12.3331 9.47027 12.3109 9.49813 12.2889 9.52608L12.2744 9.54465L12.2832 9.5075C12.288 9.48701 12.3015 9.42011 12.3131 9.35884C12.3247 9.29752 12.3367 9.23999 12.3396 9.23107L12.345 9.21479H11.9595V9.23718C11.9595 9.24953 11.948 9.32371 11.9342 9.40207C11.9202 9.48052 11.8973 9.61152 11.8832 9.69331C11.8691 9.77505 11.844 9.91726 11.8275 10.0092C11.8099 10.1069 11.7913 10.2045 11.7718 10.3018C11.7337 10.4878 11.6948 10.6737 11.655 10.8593C11.638 10.9386 11.6176 11.0321 11.6098 11.0673C11.6018 11.1023 11.5954 11.1347 11.5954 11.1392V11.1474H11.8113V11.1474V11.1474ZM16.9359 11.1474H17.1567V11.0233L17.1821 10.8693C17.1962 10.7847 17.2192 10.6505 17.2335 10.5714C17.2477 10.4922 17.2654 10.3918 17.2728 10.3483C17.2802 10.3049 17.2999 10.2109 17.3166 10.1393C17.3333 10.0678 17.3541 9.99039 17.3629 9.9674C17.3716 9.94444 17.3789 9.92029 17.379 9.9138C17.3791 9.90732 17.3979 9.86556 17.4207 9.82106L17.4624 9.74006L17.5174 9.67296L17.5724 9.60586L17.6325 9.5643C17.6656 9.54139 17.7188 9.5111 17.7507 9.49689L17.8088 9.47104L17.9352 9.47183L18.0616 9.47265L18.1114 9.48735L18.1612 9.50204L18.1695 9.49723L18.1778 9.49247L18.1783 9.46283C18.1785 9.44649 18.1893 9.38585 18.2023 9.32798L18.226 9.22277L18.1994 9.21323C18.1739 9.20451 18.1482 9.19647 18.1222 9.18905L18.0717 9.17439L17.9807 9.17464L17.8897 9.17484L17.8156 9.19885L17.7414 9.2228L17.6857 9.25369L17.63 9.28458L17.5576 9.35425L17.4851 9.42393L17.4463 9.478C17.4249 9.5077 17.4061 9.53069 17.4044 9.52905C17.4028 9.52746 17.4145 9.46552 17.4303 9.39143C17.4461 9.31731 17.4593 9.24726 17.4596 9.23577L17.46 9.21488H17.0859V9.22079C17.0859 9.22405 17.0766 9.28367 17.0651 9.35323C17.0537 9.4228 17.0308 9.55705 17.0143 9.65161C16.9944 9.76469 16.9743 9.87771 16.9539 9.99073C16.9361 10.0885 16.9175 10.186 16.898 10.2834C16.884 10.3524 16.8591 10.4736 16.8426 10.5529C16.8262 10.6321 16.7992 10.7596 16.7826 10.8363L16.7338 11.0616L16.7152 11.1475H16.9359V11.1474ZM7.15243 8.88015L7.21375 8.88034L7.26256 8.86508L7.31137 8.8498L7.35458 8.80951L7.39776 8.76931L7.42047 8.71563L7.44324 8.66198L7.44403 8.58302L7.44488 8.50408L7.42465 8.47319L7.40445 8.44233L7.36927 8.42237L7.33399 8.4023H7.18198L7.13023 8.42359L7.07852 8.44488L7.04848 8.47447L7.01844 8.50408L6.99482 8.55519L6.97123 8.60626L6.96678 8.68587L6.96236 8.76546L6.98428 8.80504L7.00624 8.84456L7.04866 8.86225L7.09099 8.87989L7.15243 8.88015Z" fill="white"/>
</svg>
