<svg width="25" height="20" viewBox="0 0 25 20" fill="none" xmlns="http://www.w3.org/2000/svg">
<rect x="0.898193" y="0.5" width="23" height="19" rx="1.55714" fill="white" stroke="#EDEEF0"/>
<path d="M10.2937 6.16895H14.5825V13.8625H10.2937V6.16895Z" fill="#FF5F00"/>
<path d="M10.5524 10.0157C10.5524 8.45255 11.2876 7.06609 12.4177 6.16896C11.5871 5.51651 10.5388 5.12231 9.39506 5.12231C6.68559 5.12231 4.4935 7.31076 4.4935 10.0157C4.4935 12.7207 6.68559 14.9091 9.39506 14.9091C10.5388 14.9091 11.5871 14.5149 12.4177 13.8625C11.2876 12.979 10.5524 11.5789 10.5524 10.0157Z" fill="#EB001B"/>
<path d="M20.3555 10.0157C20.3555 12.7207 18.1634 14.9091 15.4539 14.9091C14.3102 14.9091 13.2618 14.5149 12.4313 13.8625C13.575 12.9654 14.2966 11.5789 14.2966 10.0157C14.2966 8.45255 13.5614 7.06609 12.4313 6.16896C13.2618 5.51651 14.3102 5.12231 15.4539 5.12231C18.1634 5.12231 20.3555 7.32435 20.3555 10.0157Z" fill="#F79E1B"/>
</svg>
