<svg width="25" height="20" viewBox="0 0 25 20" fill="none" xmlns="http://www.w3.org/2000/svg">
<rect x="0.398193" width="24" height="20" rx="3" fill="#1A1F71"/>
<path fill-rule="evenodd" clip-rule="evenodd" d="M7.14839 12.9533H5.50406L4.27102 8.29864C4.21249 8.08453 4.08822 7.89524 3.90543 7.80603C3.44925 7.58183 2.94657 7.4034 2.39819 7.31341V7.13421H5.04708C5.41267 7.13421 5.68686 7.4034 5.73255 7.71604L6.37233 11.0736L8.01586 7.13421H9.61449L7.14839 12.9533ZM10.5285 12.9533H8.97552L10.2543 7.13421H11.8072L10.5285 12.9533ZM13.8163 8.74626C13.862 8.43285 14.1362 8.25365 14.4561 8.25365C14.9588 8.20865 15.5063 8.29864 15.9633 8.52206L16.2375 7.26919C15.7805 7.08999 15.2779 7 14.8217 7C13.3144 7 12.2177 7.80603 12.2177 8.92469C12.2177 9.77571 12.9945 10.2226 13.5429 10.4917C14.1362 10.7602 14.3647 10.9394 14.319 11.2078C14.319 11.6104 13.862 11.7896 13.4058 11.7896C12.8575 11.7896 12.3091 11.6554 11.8072 11.4312L11.533 12.6849C12.0814 12.9083 12.6747 12.9983 13.223 12.9983C14.9131 13.0425 15.9633 12.2372 15.9633 11.0286C15.9633 9.50652 13.8163 9.4173 13.8163 8.74626ZM21.3982 12.9533L20.1651 7.13421H18.8407C18.5665 7.13421 18.2923 7.31341 18.2009 7.58183L15.9176 12.9533H17.5163L17.8353 12.103H19.7996L19.9824 12.9533H21.3982ZM19.0692 8.70127L19.5254 10.8944H18.2466L19.0692 8.70127Z" fill="white"/>
</svg>
