<svg width="176" height="82" viewBox="0 0 176 82" fill="none" xmlns="http://www.w3.org/2000/svg">
<path fill-rule="evenodd" clip-rule="evenodd" d="M153.237 19.0028C154.295 18.6368 155.258 16.5404 155.547 15.3959C155.023 15.7957 153.557 18.3068 153.237 19.0028C152.613 19.3434 152.461 19.703 151.968 20.1431L147.525 23.1048C146.59 23.7225 146.514 23.4263 145.664 23.7246C145.086 23.9362 144.661 24.3593 144.183 24.7104C140.02 27.7419 137.102 26.7053 134.261 29.4449C133.415 30.2615 133.597 29.758 132.759 30.4096L128.585 33.3925C127.739 35.6476 122.353 35.3154 119.463 37.2427L116.603 34.8606C115.372 34.044 114.397 32.0978 108.674 29.9505C106.948 28.9584 107.506 28.9753 106.383 27.9091C105.829 27.3802 104.375 26.3817 103.995 25.967C102.778 24.6427 99.3808 20.8644 96.5714 19.8427C95.9092 19.6015 95.9367 17.1687 95.7632 16.9L95.2619 19.043C94.6716 18.0043 94.5172 16.79 94.6272 15.4742C93.9249 18.5628 93.652 20.7333 96.3069 23.1936L92.8671 21.571L95.3063 24.9368L93.9249 24.9918C95.7421 26.7244 96.5121 27.6108 98.4859 27.7419C99.2073 28.165 98.8223 27.9746 98.9957 28.2539L94.257 26.8386L99.5563 29.5697C102.095 30.3504 102.666 30.9427 104.799 32.3622C106.246 33.3248 113.11 38.3068 113.434 39.5888C112.588 40.2805 111.972 41.1352 111.801 42.2733C111.89 43.8896 111.35 44.3719 112.04 45.9691L112.372 45.5016C112.571 45.4085 113.675 44.3719 113.931 44.5602C115.541 44.539 116.592 44.209 116.893 44.5348C117.621 45.3408 123.952 44.8923 123.984 50.7459C124.026 52.0977 122.715 52.3156 124.407 54.4332C125.131 55.3387 126.878 55.5417 127.621 54.3655L126.895 54.2153C125.744 54.0609 127.483 52.6372 127.978 53.532C128.075 53.675 128.136 53.8393 128.156 54.0109C128.176 54.1826 128.154 54.3565 128.092 54.5178C128.659 53.8515 128.788 53.2803 128.255 52.8529C127.284 52.3579 126.592 52.7429 126.059 52.5631C125.09 52.2352 124.76 51.4588 125.063 50.2149C125.141 49.8997 125.808 49.2629 125.922 48.8018L128.829 49.6035C130.263 50.7607 129.463 50.2128 131.124 50.9701C129.933 53.1131 131.369 56.6926 134.458 55.7935C133.984 55.7575 133.69 55.5819 133.597 55.2265C134.062 55.6348 135.044 55.4042 135.272 54.3803C134.915 54.7738 134.272 54.8563 133.914 54.4586C134.185 53.111 132.027 53.4728 132.478 51.7465L132.901 50.8284C136.637 52.8149 134.693 52.0131 137.343 52.4743C138.177 52.6181 137.826 52.8529 138.372 52.2966C139.658 52.7091 141.069 53.3205 142.139 53.4051L142.44 52.6985C142.447 52.647 142.465 52.5977 142.495 52.5547L144.236 52.6054L143.225 51.2621L145.063 51.5731C145.175 51.6661 145.243 51.7106 145.26 51.6936C144.98 51.0061 145.329 50.3059 144.686 49.832L146.239 49.7093L144.16 48.5056L146.415 48.1079L140.69 46.5826V46.572L140.377 46.498L140.299 46.4768C139.078 46.1785 137.904 45.8062 136.614 45.5375C135.236 45.2519 134.202 44.5411 132.907 44.0567C133.265 43.6949 133.542 43.329 133.825 43.018C135.01 41.7064 136.423 42.3156 137.79 39.9611C141.771 39.3539 138.236 39.4259 141.691 38.1333C142.884 37.6848 142.727 37.725 143.159 36.7476C143.37 36.6947 147.627 34.4735 147.961 33.2846L154.308 30.2911L153.645 29.5317L157.453 28.11C158.158 27.7208 156.753 28.2899 159.169 27.1559C159.741 26.9107 160.234 26.5134 160.595 26.0072L159.127 25.6878L163.021 23.5998L161.346 22.7536C162.827 22.6965 165.012 22.2649 165.788 20.8348C163.751 21.4272 161.509 22.3707 159.472 22.0005C161.636 21.1797 164.208 20.3673 166 18.8484L162.27 19.5232C161.024 19.7453 159.618 20.2806 158.638 20.4181C161.811 18.9013 163.798 18.3787 165.814 15.4445C163.76 16.4706 159.351 18.8653 157.189 19.1911C159.802 17.3104 162.787 15.1272 162.738 11.5266C162.207 11.9624 162.289 11.9159 161.942 12.6098C160.868 14.7549 160.931 14.0462 159.728 15.7597C158.524 17.4733 158.968 17.7081 155.674 18.9647C157.303 17.1919 157.35 17.211 158.788 15.2309C159.656 14.0356 160.737 11.6789 160.709 10.2573C159.941 10.9237 160.214 10.6 159.725 11.423C158.187 14.0187 157.248 17.4923 153.409 19.4746L153.237 19.0028Z" fill="#E01F26"/>
<path fill-rule="evenodd" clip-rule="evenodd" d="M16.2013 43.2824H20.6798L26.4615 63.5277H21.911L20.904 59.3454H15.2091L14.2106 63.5277H10.1213L16.2013 43.2824ZM20.0578 55.8781L18.0227 47.6149L16.0532 55.8781H20.0578ZM27.7837 48.5521H31.7418V50.5893C32.4547 49.0302 33.6648 48.2453 35.3762 48.2453C37.1532 48.2453 38.2321 49.0302 38.6066 50.5893C39.2793 49.0302 40.4894 48.2453 42.241 48.2453C43.2183 48.2453 43.9969 48.4273 44.5807 48.7827C45.1381 49.1152 45.5633 49.6301 45.7845 50.2403C46.0129 50.8622 46.1279 52.0264 46.1293 53.7329V63.5235H41.9575V54.1666C41.9575 53.0539 41.8814 52.324 41.7248 51.9898C41.5683 51.6555 41.2129 51.4842 40.6671 51.4842C40.0134 51.4842 39.5882 51.6957 39.3978 52.1421C39.2074 52.5885 39.0995 53.4727 39.0995 54.8055V63.5277H34.9171V54.0355C34.9171 52.9671 34.841 52.2733 34.6844 51.9602C34.5279 51.6471 34.1831 51.4842 33.6415 51.4842C32.9688 51.4842 32.5224 51.7169 32.3002 52.1717C32.0781 52.6265 31.966 53.5087 31.966 54.8055V63.5277H27.7858V48.5479L27.7837 48.5521ZM60.5105 56.7243H52.6493V57.5705C52.6493 58.9159 52.8312 59.8171 53.2014 60.2677C53.3697 60.4872 53.5876 60.6635 53.8374 60.7823C54.0871 60.9011 54.3614 60.9589 54.6378 60.951C55.9071 60.951 56.6243 60.0957 56.7893 58.3849L60.5105 58.624C59.849 62.1061 57.8661 63.8472 54.5617 63.8472C52.5266 63.8472 50.9794 63.1589 49.9203 61.7824C48.8611 60.4059 48.3329 58.5669 48.3358 56.2652C48.3358 53.6674 48.8999 51.6823 50.0282 50.3101C51.1564 48.9378 52.6612 48.2531 54.5426 48.2559C55.3421 48.2388 56.136 48.3919 56.8717 48.7053C57.6074 49.0186 58.268 49.4849 58.8096 50.0731C59.9492 51.2874 60.5196 53.5094 60.521 56.7391L60.5105 56.7243ZM56.5672 54.3105C56.5672 54.1285 56.582 53.991 56.582 53.8874C56.582 51.958 55.929 50.9927 54.623 50.9913C53.3171 50.9898 52.6669 52.0991 52.6725 54.3189L56.5672 54.3105ZM62.9602 48.5394H66.6348V52.159C67.2977 49.6204 68.4789 48.3511 70.1783 48.3511C70.4178 48.3545 70.6564 48.38 70.8912 48.4273V52.5017C70.6599 52.4687 70.4267 52.4503 70.1931 52.4467C68.158 52.4467 67.1405 53.9889 67.1405 57.0733V63.5235H62.9581V48.5479L62.9602 48.5394ZM76.4719 47.3103H72.2409V43.1851H76.4719V47.3272V47.3103ZM72.26 48.5394H76.4423V63.5193H72.26V48.5479V48.5394ZM90.6966 54.0566L86.8083 54.2047C86.749 53.2887 86.5967 52.5885 86.364 52.1231C86.2574 51.8989 86.0863 51.7117 85.8726 51.5854C85.6589 51.4591 85.4123 51.3996 85.1645 51.4144C83.7626 51.4144 83.0575 52.8875 83.049 55.8336C83.049 57.5451 83.2225 58.7446 83.561 59.43C83.8995 60.1154 84.4072 60.4581 85.0799 60.4581C86.1376 60.4581 86.7046 59.5315 86.7998 57.6826L90.6881 57.9322C90.3383 61.8685 88.3808 63.8373 84.8155 63.8387C82.8875 63.8387 81.4116 63.1871 80.3877 61.884C79.3638 60.5808 78.8554 58.6494 78.8625 56.0896C78.8625 53.5383 79.3991 51.5963 80.4724 50.2635C81.5456 48.9308 83.0504 48.2623 84.9868 48.258C88.4859 48.258 90.3898 50.1965 90.6987 54.0735L90.6966 54.0566ZM96.969 53.2972L93.0046 52.9164C93.1964 51.4129 93.8381 50.2565 94.9297 49.4469C96.0234 48.6388 97.4006 48.2284 99.0591 48.2284C100.462 48.2284 101.598 48.5013 102.444 49.0387C103.29 49.576 103.832 50.2022 104.054 50.9151C104.276 51.628 104.388 52.7281 104.388 54.2216V60.2C104.388 62.0574 104.468 63.1617 104.636 63.5214H100.768C100.627 63.1152 100.557 62.3515 100.557 61.2218C99.6346 62.965 98.2644 63.8359 96.4465 63.8345C95.2809 63.8345 94.331 63.4854 93.6011 62.7873C92.8713 62.0892 92.5032 61.0759 92.5032 59.7389C92.5032 58.0697 93.0532 56.7772 94.1618 55.8611C95.2703 54.9451 97.2863 54.3993 100.212 54.2216V53.6589C100.212 52.6583 100.111 51.9665 99.9075 51.5836C99.7044 51.2007 99.3151 51.0018 98.7291 51.0018C97.6714 51.0018 97.0727 51.7719 96.9669 53.2993L96.969 53.2972ZM100.214 56.3562C98.9999 56.4916 98.1326 56.7666 97.6121 57.1664C97.0917 57.5662 96.8336 58.239 96.8336 59.1909C96.8336 60.4602 97.299 61.0949 98.2299 61.0949C98.7312 61.0949 99.1924 60.8072 99.6007 60.2487C100.009 59.6902 100.214 58.6325 100.214 57.1093V56.3646V56.3562ZM107.464 48.5479H111.422V50.5893C112.116 49.0302 113.366 48.2453 115.173 48.2453C116.03 48.2121 116.878 48.4433 117.599 48.9075C118.2 49.2986 118.636 49.8973 118.824 50.5893C119 51.2726 119.093 52.3092 119.093 53.7076V63.5235H114.906V53.7076C114.906 52.6942 114.779 52.0723 114.521 51.8332C114.233 51.5878 113.861 51.4614 113.483 51.4799C112.734 51.4799 112.237 51.7126 112.002 52.1675C111.767 52.6223 111.648 53.4897 111.648 54.7442V63.5235H107.464V48.5479Z" fill="#E01F26"/>
<path fill-rule="evenodd" clip-rule="evenodd" d="M101.024 64.6192H103.091C103.461 64.606 103.83 64.6445 104.189 64.7335C104.451 64.8219 104.671 65.0013 104.811 65.2391C104.987 65.5325 105.073 65.8705 105.061 66.2122C105.061 66.8892 104.773 67.3235 104.198 67.5154C104.512 67.6081 104.786 67.8054 104.972 68.0747C105.159 68.3441 105.249 68.6692 105.226 68.9962C105.238 69.3492 105.14 69.6972 104.947 69.9926C104.783 70.2454 104.541 70.4367 104.257 70.5363C103.877 70.6385 103.484 70.6834 103.091 70.6696H101.024V64.6192ZM102.294 67.0626H102.717C103.14 67.0626 103.415 66.9865 103.525 66.832C103.636 66.6783 103.694 66.4927 103.69 66.3032C103.693 66.1262 103.634 65.9537 103.525 65.8145C103.415 65.6706 103.178 65.6029 102.812 65.6029H102.285V67.0669L102.294 67.0626ZM102.294 69.633H102.945C103.559 69.633 103.866 69.3692 103.866 68.8418C103.878 68.7277 103.863 68.6123 103.823 68.5048C103.783 68.3972 103.719 68.3004 103.635 68.2219C103.431 68.0889 103.188 68.0265 102.945 68.0442H102.294V69.6287V69.633ZM105.949 66.1932H107.2V69.0681C107.185 69.2656 107.212 69.4639 107.28 69.6499C107.333 69.7472 107.449 69.7959 107.627 69.7959C107.761 69.8052 107.893 69.7628 107.997 69.6774C108.085 69.5877 108.139 69.4703 108.149 69.3453C108.173 69.0568 108.181 68.7673 108.175 68.4779V66.1932H109.427V70.6738H108.251V70.0624C108.135 70.3032 107.951 70.5047 107.722 70.6421C107.523 70.7326 107.306 70.776 107.087 70.769C106.825 70.7858 106.565 70.7151 106.347 70.568C106.182 70.4422 106.064 70.2639 106.013 70.0624C105.954 69.7479 105.929 69.4281 105.939 69.1083V66.1932H105.949ZM110.345 66.1932H111.445V67.2763C111.644 66.5175 111.997 66.1375 112.503 66.136C112.574 66.1376 112.645 66.1454 112.715 66.1593V67.3778C112.645 67.3674 112.574 67.3617 112.503 67.3609C111.894 67.3609 111.589 67.8221 111.589 68.7445V70.6738H110.339V66.1932H110.345ZM113.131 66.1932H114.232V67.2763C114.43 66.5175 114.783 66.1375 115.289 66.136C115.36 66.1376 115.431 66.1454 115.501 66.1593V67.3778C115.431 67.3674 115.36 67.3617 115.289 67.3609C114.68 67.3609 114.375 67.8221 114.375 68.7445V70.6738H113.125V66.1932H113.131ZM119.002 67.2721L118.109 67.5386C117.991 67.1324 117.771 66.9294 117.451 66.9294C117.398 66.9219 117.344 66.9269 117.293 66.944C117.243 66.961 117.197 66.9897 117.159 67.0277C117.121 67.0656 117.093 67.1119 117.076 67.1628C117.059 67.2136 117.054 67.2677 117.062 67.3207C117.058 67.3843 117.069 67.448 117.094 67.5065C117.12 67.565 117.159 67.6166 117.208 67.6571C117.401 67.7799 117.61 67.874 117.83 67.9363C118.089 68.0233 118.341 68.1301 118.583 68.2558C118.752 68.3597 118.891 68.5055 118.987 68.6789C119.099 68.8714 119.156 69.0909 119.152 69.3135C119.156 69.5093 119.118 69.7035 119.04 69.8834C118.963 70.0632 118.848 70.2245 118.704 70.3565C118.358 70.6549 117.909 70.8067 117.453 70.7796C116.445 70.7796 115.885 70.3339 115.774 69.4426L116.77 69.2818C116.85 69.7303 117.085 69.9545 117.472 69.9545C117.805 69.9545 117.97 69.8149 117.97 69.5314C117.973 69.468 117.962 69.4046 117.937 69.3462C117.912 69.2878 117.874 69.2361 117.826 69.1951C117.65 69.0829 117.458 68.9987 117.257 68.9454C116.856 68.8459 116.49 68.6389 116.199 68.3467C116.008 68.1201 115.905 67.8326 115.909 67.5365C115.902 67.34 115.939 67.1445 116.018 66.9643C116.097 66.7841 116.215 66.624 116.364 66.4957C116.683 66.2309 117.088 66.0924 117.502 66.1064C118.285 66.1022 118.788 66.4907 119.01 67.2721H119.002Z" fill="#E01F26"/>
<path fill-rule="evenodd" clip-rule="evenodd" d="M149.874 42.9397C149.241 42.9397 148.623 43.1271 148.097 43.4782C147.572 43.8293 147.162 44.3283 146.919 44.9123C146.677 45.4963 146.613 46.139 146.736 46.7593C146.859 47.3795 147.162 47.9495 147.609 48.3971C148.055 48.8448 148.624 49.1501 149.244 49.2745C149.864 49.3989 150.507 49.3367 151.092 49.0959C151.676 48.8551 152.177 48.4465 152.529 47.9216C152.881 47.3967 153.071 46.7791 153.072 46.1468C153.073 45.726 152.991 45.3092 152.831 44.9201C152.671 44.5311 152.435 44.1775 152.138 43.8795C151.841 43.5816 151.488 43.3453 151.1 43.184C150.711 43.0227 150.294 42.9397 149.874 42.9397ZM149.874 48.8208C149.343 48.8208 148.824 48.6632 148.382 48.3681C147.941 48.073 147.597 47.6535 147.394 47.1629C147.192 46.6723 147.139 46.1325 147.243 45.6119C147.347 45.0913 147.604 44.6134 147.98 44.2386C148.356 43.8638 148.835 43.6089 149.355 43.5064C149.876 43.4039 150.416 43.4582 150.906 43.6625C151.396 43.8668 151.814 44.212 152.108 44.6542C152.402 45.0964 152.558 45.6159 152.556 46.1468C152.554 46.8568 152.27 47.5369 151.767 48.0381C151.265 48.5393 150.584 48.8208 149.874 48.8208Z" fill="#E01F26"/>
<path fill-rule="evenodd" clip-rule="evenodd" d="M150.974 47.1792C150.862 46.9832 150.733 46.7977 150.589 46.6249C150.482 46.512 150.359 46.4151 150.225 46.3372C150.476 46.3155 150.712 46.2045 150.889 46.0241C151.036 45.8464 151.112 45.62 151.101 45.3895C151.105 45.1993 151.054 45.012 150.955 44.85C150.865 44.7003 150.727 44.5854 150.563 44.5242C150.309 44.4512 150.045 44.4204 149.781 44.4332H148.353V47.8392H149.032V46.4155H149.169C149.284 46.4103 149.399 46.4232 149.51 46.4536C149.591 46.4815 149.664 46.5303 149.721 46.5953C149.851 46.7549 149.97 46.9224 150.079 47.0967L150.57 47.8392H151.382L150.974 47.1792ZM149.544 45.8739H149.042V45.0108H149.571C149.846 45.0108 150.011 45.0108 150.066 45.0214C150.164 45.0344 150.255 45.0816 150.322 45.1546C150.386 45.2333 150.418 45.3328 150.413 45.4339C150.416 45.524 150.392 45.6129 150.345 45.6899C150.299 45.7574 150.232 45.8079 150.155 45.8337C149.953 45.8708 149.748 45.8843 149.544 45.8739Z" fill="#E01F26"/>
</svg>
