<svg width="176" height="82" viewBox="0 0 176 82" fill="none" xmlns="http://www.w3.org/2000/svg">
<path d="M95.2971 56.8994H96.0265H100.379H101.109C101.461 56.8994 101.897 56.6406 101.979 56.2641L107.202 33.6182C107.214 33.5476 107.261 33.477 107.332 33.477C107.414 33.477 107.449 33.5241 107.461 33.6182L108.555 49.9703C108.579 50.3468 108.767 50.6056 109.108 50.6056H109.802H114.884H115.614C116.19 50.6056 116.837 50.3703 117.39 49.9703C117.837 49.6527 118.225 49.2292 118.496 48.7234L118.825 48.0998L126.166 34.2652L126.484 33.6535L126.496 33.6182C126.531 33.5476 126.59 33.477 126.66 33.477C126.743 33.477 126.778 33.5476 126.766 33.6182L126.625 34.2535L121.649 55.8053L121.543 56.2641C121.461 56.6053 121.778 56.8994 122.119 56.8994H122.849H127.201H127.931C128.272 56.8994 128.719 56.6406 128.801 56.2641L128.942 55.6289L135.613 26.7009L135.754 26.0774C135.836 25.7363 135.519 25.4539 135.177 25.4539H134.46H126.484H125.46C124.884 25.4539 124.249 25.6892 123.684 26.0892C123.237 26.4068 122.849 26.8303 122.578 27.3362L122.296 27.8656L115.52 40.6296C115.496 40.6767 115.449 40.712 115.367 40.712C115.273 40.712 115.19 40.6414 115.178 40.5355L114.355 28.5832L114.308 27.8891C114.261 27.2656 114.061 26.6891 113.614 26.2774C113.049 25.748 112.332 25.4421 111.226 25.4421H110.52H103.238H102.426C102.085 25.4421 101.744 25.7127 101.673 26.0539L101.52 26.7127L94.6971 56.2641C94.6383 56.6053 94.9559 56.8994 95.2971 56.8994Z" fill="#4E6470"/>
<path d="M67.5926 26.3479C67.6279 26.2656 67.6514 26.1715 67.6514 26.0774C67.6514 25.7244 67.3573 25.4539 67.0161 25.4539H66.3926H49.5935H48.7112C48.0171 25.4539 47.323 26.0068 47.1583 26.7009L40.4763 55.6641L40.3351 56.2759C40.2527 56.617 40.5704 56.9111 40.9116 56.9111H41.6291H45.9819H46.7113C47.0642 56.9111 47.4994 56.6523 47.5818 56.2759L47.6406 56.0406L50.2287 44.8411C50.3346 44.5353 50.6523 44.3235 50.9581 44.3235H50.9699H51.7816H54.405H58.2871C58.7812 44.3235 59.3812 44.1118 59.6165 43.6882L59.9577 43.0177L62.134 38.9238C62.1693 38.8414 62.1929 38.7473 62.1929 38.6532C62.1929 38.3003 61.8988 38.0297 61.5576 38.0297H60.9459H53.2639H52.4404C52.0875 38.0297 51.8757 37.7474 51.9581 37.4062L51.9816 37.3003L53.1345 32.3241C53.2168 31.9829 53.558 31.7359 53.8874 31.7359H54.6991H59.8989H62.8281C63.8045 31.7359 64.9927 31.3124 65.4398 30.4654L65.7574 29.8654L67.5926 26.3479ZM50.1935 44.9117C50.1935 44.8882 50.2052 44.8647 50.2169 44.8411L50.1935 44.9117Z" fill="#4E6470"/>
<path d="M59.6165 43.6765L59.6047 43.6883L59.593 43.7236L59.6165 43.6765Z" fill="#4E6470"/>
<path d="M80.3566 43.7236L80.3448 43.6883V43.6765L80.3566 43.7236Z" fill="#4E6470"/>
<path d="M90.1561 54.0876L93.5089 39.5824C93.5324 39.4883 93.5442 39.3942 93.5442 39.2883C93.5442 38.5942 92.9795 38.0295 92.2854 38.0295H90.2738H80.839H80.0861C79.7332 38.0295 79.3685 38.3119 79.2626 38.653C79.2391 38.7471 79.2273 38.8413 79.239 38.9236L80.2037 43.0175L80.3566 43.6763C80.4625 44.0998 80.9919 44.3116 81.486 44.3116H82.2271H83.7212H84.4388C84.7564 44.3116 85.0858 44.6174 85.0035 44.9468C85.0035 44.9704 85.0035 44.9586 85.0035 44.9586L84.0035 49.3231C83.8859 49.7584 83.5094 50.1348 83.0388 50.3113C82.0742 50.7583 80.7919 51.0171 79.3919 51.0171C78.0273 51.0171 76.8627 50.7465 76.098 50.323C73.1687 48.8643 72.6041 44.7351 73.4276 41.1588C74.8628 34.9238 77.2392 31.724 82.9683 31.724H84.427H88.7915H91.7208C92.6972 31.724 93.8853 31.3005 94.3324 30.4534L94.65 29.8535L96.5205 26.3242C96.5558 26.2419 96.5793 26.1478 96.5793 26.0537C96.5793 25.7008 96.2852 25.4302 95.9441 25.4302H95.3206H85.1681H84.4035C72.2158 25.4302 68.0631 32.4886 66.1103 41.1353C64.7103 47.3467 67.2632 52.97 71.7335 55.4169C73.6158 56.5227 76.498 57.1227 79.8508 57.1227C83.2742 57.1227 86.5093 56.4404 88.8974 55.3463C89.5797 55.0405 90.0032 54.6522 90.1561 54.0876Z" fill="#4E6470"/>
<path d="M147.447 25.3361C147.4 25.3008 147.353 25.2656 147.306 25.2303C147.247 25.195 147.189 25.1597 147.095 25.1597C146.895 25.1597 146.695 25.3244 146.647 25.5244C146.624 25.6538 146.659 25.7479 146.742 25.8302C146.777 25.8655 146.871 25.9479 146.906 25.9832C151.494 30.4182 153.541 35.5709 152.282 41.0765C148.553 57.4169 117.249 70.6986 82.0977 70.9339C81.933 70.9339 81.7213 70.9221 81.5566 70.9221C81.286 70.9221 81.0154 71.1456 80.9448 71.4162C80.886 71.6868 81.0507 71.9103 81.3213 71.9103C81.486 71.922 81.7566 71.9221 81.933 71.9338C83.9094 72.0044 85.9093 72.0515 87.9327 72.0515C126.084 72.0515 157 58.1816 157 41.0765C157.023 35.3239 153.529 29.9477 147.447 25.3361Z" fill="#4E6470"/>
<path d="M93.803 11.2663C93.9677 11.2663 94.1795 11.278 94.3442 11.278C94.6147 11.278 94.8853 11.0545 94.9559 10.784C95.0147 10.5134 94.8383 10.3016 94.5795 10.2899C94.4148 10.2781 94.1442 10.2781 93.9678 10.2663C91.9914 10.1957 89.9915 10.1487 87.968 10.1487C49.817 10.1487 18.9009 24.0186 18.9009 41.1236C18.9009 46.8645 22.3948 52.2525 28.4651 56.864C28.5121 56.8993 28.5592 56.9346 28.6063 56.9699C28.6769 57.0169 28.7239 57.0405 28.818 57.0405C29.018 57.0405 29.218 56.8758 29.2651 56.6758C29.2886 56.5464 29.2533 56.4523 29.1709 56.3699C29.1356 56.3346 29.0415 56.2523 29.0062 56.217C24.4182 51.7819 22.3713 46.6292 23.63 41.1236C27.3475 24.7833 58.6636 11.5016 93.803 11.2663Z" fill="#4E6470"/>
</svg>
