<svg width="176" height="82" viewBox="0 0 176 82" fill="none" xmlns="http://www.w3.org/2000/svg">
<path d="M50.0424 21H49.6391V61.35H50.0424V21Z" fill="#585856"/>
<path d="M65.817 60.1758V56.1669H65.8052L64.5717 60.1758H64.204L62.9705 56.1669H62.9468V60.1758H62.5198V55.7874H63.267L64.3819 59.3337H64.3938L65.4968 55.7874H66.2559V60.1758H65.817Z" fill="#585856"/>
<path d="M68.4738 55.7874H67.9875V60.164H68.4738V55.7874Z" fill="#585856"/>
<path d="M71.4746 56.2025V60.164H70.9883V56.2025H69.6718V55.7874H72.7792V56.2025H71.4746Z" fill="#585856"/>
<path d="M75.9342 56.9023C75.8275 56.4754 75.4835 56.1432 74.9142 56.1432C74.4042 56.1432 74.0958 56.3804 74.0958 56.8193C74.0839 57.78 76.5628 57.531 76.5628 58.9424C76.5628 59.5828 76.207 60.2233 75.0921 60.2233C74.1314 60.2233 73.7518 59.6066 73.5265 59.0847L73.9653 58.9305C74.1432 59.3931 74.4635 59.82 75.1158 59.82C75.7563 59.82 76.0765 59.4761 76.0765 59.0373C76.0765 57.9224 73.6095 58.2426 73.6095 56.8668C73.6095 56.2381 74.1314 55.74 74.926 55.74C75.6021 55.74 76.1358 56.0958 76.373 56.8193L75.9342 56.9023Z" fill="#585856"/>
<path d="M78.3775 55.7874V58.883C78.3775 59.393 78.7451 59.82 79.4212 59.82C80.1091 59.82 80.4649 59.393 80.4649 58.883V55.7874H80.9512V58.8474C80.9512 59.7251 80.3226 60.2351 79.4212 60.2351C78.5198 60.2351 77.8912 59.7251 77.8912 58.8474V55.7874H78.3775Z" fill="#585856"/>
<path d="M83.1691 55.7874H82.6829V60.164H83.1691V55.7874Z" fill="#585856"/>
<path d="M89.8705 58.8593C89.6807 59.6658 89.23 60.2351 88.3286 60.2351C87.3442 60.2351 86.6562 59.5234 86.6562 57.9816C86.6562 56.5583 87.273 55.728 88.3286 55.728C89.1351 55.728 89.6096 56.2024 89.8112 56.9971L89.3605 57.1276C89.2063 56.5108 88.9216 56.1313 88.2693 56.1313C87.6407 56.1313 87.1425 56.7125 87.1425 57.9697C87.1425 59.2388 87.6407 59.8081 88.3642 59.8081C89.0402 59.8081 89.3012 59.2981 89.4316 58.7644L89.8705 58.8593Z" fill="#585856"/>
<path d="M94.1284 55.7874V60.1758H93.6421V58.0883H91.5428V60.1758H91.0684V55.7874H91.5428V57.6732H93.6421V55.7874H94.1284Z" fill="#585856"/>
<path d="M98.3746 55.7874V56.2025H96.2278V57.6732H97.7578V58.0883H96.2278V59.7607H98.4932V60.1758H95.7534V55.7874H98.3746Z" fill="#585856"/>
<path d="M103.071 60.1758V56.1669H103.048L101.826 60.1758H101.446L100.213 56.1669H100.201V60.1758H99.7623V55.7874H100.509L101.624 59.3337H101.636L102.739 55.7874H103.498V60.1758H103.071Z" fill="#585856"/>
<path d="M105.716 55.7874H105.23V60.164H105.716V55.7874Z" fill="#585856"/>
<path d="M110.259 58.8593C110.069 59.6658 109.618 60.2351 108.717 60.2351C107.733 60.2351 107.045 59.5234 107.045 57.9816C107.045 56.5583 107.661 55.728 108.717 55.728C109.524 55.728 109.998 56.2024 110.2 56.9971L109.749 57.1276C109.595 56.5108 109.31 56.1313 108.658 56.1313C108.029 56.1313 107.531 56.7125 107.531 57.9697C107.531 59.2388 108.029 59.8081 108.753 59.8081C109.429 59.8081 109.69 59.2981 109.82 58.7644L110.259 58.8593Z" fill="#585856"/>
<path d="M110.947 60.1759L112.287 55.7993H113.011L114.363 60.1759H113.853L113.438 58.8001H111.86L111.445 60.1759H110.947ZM111.991 58.3849H113.319L112.69 56.1314H112.619L111.991 58.3849Z" fill="#585856"/>
<path d="M115.466 60.1758V55.7874H115.952V59.7607H118.028V60.1758H115.466Z" fill="#585856"/>
<path d="M121.206 56.9023C121.1 56.4754 120.756 56.1432 120.186 56.1432C119.676 56.1432 119.368 56.3804 119.368 56.8193C119.356 57.78 121.835 57.531 121.835 58.9424C121.835 59.5828 121.479 60.2233 120.364 60.2233C119.403 60.2233 119.024 59.6066 118.799 59.0847L119.237 58.9305C119.415 59.3931 119.736 59.82 120.388 59.82C121.028 59.82 121.349 59.4761 121.349 59.0373C121.349 57.9224 118.882 58.2426 118.882 56.8668C118.882 56.2381 119.403 55.74 120.198 55.74C120.874 55.74 121.408 56.0958 121.645 56.8193L121.206 56.9023Z" fill="#585856"/>
<path d="M128.216 58.0647V60.1641H127.813V59.7608H127.801C127.576 60.0692 127.137 60.2234 126.65 60.2234C125.654 60.2234 124.942 59.5117 124.942 57.9698C124.942 56.4398 125.654 55.7163 126.65 55.7163C127.386 55.7163 127.955 56.0721 128.228 56.9972L127.765 57.0921C127.552 56.3923 127.184 56.1314 126.674 56.1314C126.034 56.1314 125.429 56.5703 125.429 57.9698C125.429 59.3694 126.034 59.8082 126.674 59.8082C127.386 59.8082 127.718 59.3694 127.718 58.8356V58.468H126.733V58.0529H128.216V58.0647Z" fill="#585856"/>
<path d="M129.616 60.164V55.7874H131.027C131.976 55.7874 132.486 56.2143 132.486 56.9378C132.486 57.5546 132.13 57.9104 131.608 58.0765L132.533 60.164H132.011L131.122 58.1714H130.102V60.164H129.616ZM130.102 57.7681H130.98C131.644 57.7681 132 57.519 132 56.9734C132 56.3804 131.596 56.2143 130.98 56.2143H130.102V57.7681Z" fill="#585856"/>
<path d="M135.38 55.728C136.459 55.728 137.088 56.5227 137.088 57.9816C137.088 59.4404 136.447 60.2351 135.38 60.2351C134.3 60.2351 133.672 59.4523 133.672 57.9816C133.672 56.5227 134.3 55.728 135.38 55.728ZM135.38 59.82C136.151 59.82 136.601 59.2269 136.601 57.9816C136.601 56.7362 136.151 56.1432 135.38 56.1432C134.609 56.1432 134.158 56.7362 134.158 57.9816C134.158 59.2269 134.609 59.82 135.38 59.82Z" fill="#585856"/>
<path d="M138.855 55.7874V58.883C138.855 59.393 139.223 59.82 139.899 59.82C140.587 59.82 140.942 59.393 140.942 58.883V55.7874H141.429V58.8474C141.429 59.7251 140.8 60.2351 139.899 60.2351C138.997 60.2351 138.369 59.7251 138.369 58.8474V55.7874H138.855Z" fill="#585856"/>
<path d="M143.006 60.164V55.7874H144.536C145.473 55.7874 145.877 56.3211 145.877 57.009C145.877 57.7325 145.378 58.2069 144.263 58.2069H143.493V60.164H143.006ZM143.481 57.8037H144.311C145.117 57.8037 145.39 57.5309 145.39 57.009C145.39 56.4871 145.082 56.2143 144.43 56.2143H143.493V57.8037H143.481Z" fill="#585856"/>
<path d="M92.1358 32.1729V41.2107C92.1358 42.5628 92.1595 44.1877 91.78 45.2196C91.3056 46.4887 90.4279 47.8052 87.6644 47.8052V47.7933V47.8052H87.6762C85.0431 47.8052 83.7385 46.4768 83.3589 44.674C83.1336 43.6302 83.1929 42.5746 83.1929 41.2107V32.1729H79.6821V43.3456C79.6821 47.4019 82.2203 50.7703 87.6644 50.7703C93.1084 50.7703 95.6466 47.3189 95.6466 43.3456V32.1729H92.1358Z" fill="#585856"/>
<path d="M131.834 50.5924H116.142V47.6154L127.516 35.1143H116.415V32.1729H131.834V34.9601L120.661 47.6391H131.834V50.5924Z" fill="#585856"/>
<path d="M138.001 47.568V43.0609H148.782V40.2499H138.001V35.1854H149.648V32.1729H134.55V50.5924H138.001H149.897V47.568H138.001Z" fill="#585856"/>
<path d="M164.344 42.3967C166.585 41.7563 167.724 39.9297 167.7 37.6643C167.676 34.6398 165.992 32.1729 161.829 32.1729H152.696V35.0075H159.86H161.224C163.252 35.0075 164.201 35.9327 164.201 37.6643C164.201 39.396 163.359 40.2499 160.619 40.2499H159.872L152.708 40.2618V50.5924H156.219V43.0609H161.034L164.51 50.5924H168.4L164.344 42.3967Z" fill="#585856"/>
<path d="M66.0305 32.1729H62.5198V50.5924H66.0305V32.1729Z" fill="#585856"/>
<path d="M98.9202 50.5924V32.1729H102.431V47.6391H113.675V50.5924H98.9202Z" fill="#585856"/>
<path d="M71.1425 41.2344L77.2151 32.1729H73.4434L67.9994 40.416V42.0409L74.4753 50.5924H78.3656L71.1425 41.2344Z" fill="#585856"/>
<path d="M22.2291 56.1196C13.8317 56.1196 7 49.2878 7 40.8905C7 32.4931 13.8317 25.6614 22.2291 25.6614C30.6264 25.6614 37.4582 32.4931 37.4582 40.8905C37.4582 49.2878 30.6264 56.1196 22.2291 56.1196Z" fill="#BBCE32"/>
<path d="M22.2054 34.9008C20.9126 34.9008 19.3944 34.1299 17.8051 34.1299C16.2157 34.1299 15.4804 34.5924 14.9704 35.992C14.4485 37.439 13.8555 43.3812 15.7413 47.8645C16.9748 50.806 19.9875 43.6303 22.2054 43.6303C24.4115 43.6303 27.6732 50.806 28.8948 47.8645C30.7806 43.3337 29.9385 37.3085 29.4048 35.8615C28.8948 34.462 28.112 34.1299 26.5227 34.1299C24.9452 34.1299 23.5101 34.9008 22.2054 34.9008Z" fill="white"/>
</svg>
